/* XPM */
const char * _av_noav[] = {
/*columns rows colors char-per-pixel */
"32 32 5 1",
"  c None",
"1 c magenta",
"2 c blue",
"3 c yellow",
"4 c green",
"                                ",
"                                ",
"                                ",
"   111111    222222    333333   ",
"   111111    222222    333333   ",
"   111111    222222    333333   ",
"   111111    222222    333333   ",
"   111111    222222    333333   ",
"   111111    222222    333333   ",
"                                ",
"                                ",
"                                ",
"                                ",
"   111111    444444    444444   ",
"   111111    444444    444444   ",
"   111111    444444    444444   ",
"   111111    444444    444444   ",
"   111111    444444    444444   ",
"   111111    444444    444444   ",
"                                ",
"                                ",
"                                ",
"                                ",
"   111111    444444    444444   ",
"   111111    444444    444444   ",
"   111111    444444    444444   ",
"   111111    444444    444444   ",
"   111111    444444    444444   ",
"   111111    444444    444444   ",
"                                ",
"                                ",
"                                "
};

/* XPM */
const char * _av_posav[] = {
/*columns rows colors char-per-pixel */
"32 32 6 1",
"  c None",
"1 c magenta",
"2 c blue",
"3 c yellow",
"4 c green",
"0 c black",
"                                ",
"                                ",
"                                ",
"   000000    000000    000000   ",
"   011110    022220    033330   ",
"   011110    022220    033330   ",
"   011110    022220    033330   ",
"   011110    022220    033330   ",
"   000000    000000    000000   ",
"                                ",
"                                ",
"                                ",
"                                ",
"   000000    000000    000000   ",
"   011110    044440    044440   ",
"   011110    044440    044440   ",
"   011110    044440    044440   ",
"   011110    044440    044440   ",
"   000000    000000    000000   ",
"                                ",
"                                ",
"                                ",
"                                ",
"   000000    000000    000000   ",
"   011110    044440    044440   ",
"   011110    044440    044440   ",
"   011110    044440    044440   ",
"   011110    044440    044440   ",
"   000000    000000    000000   ",
"                                ",
"                                ",
"                                "
};

/* XPM */
const char * _av_colorav[] = {
/*columns rows colors char-per-pixel */
"32 32 6 1",
"  c None",
"1 c magenta",
"2 c blue",
"3 c yellow",
"4 c green",
"0 c black",
"                                ",
"                                ",
"                                ",
"             000000    000000   ",
"             022220    033330   ",
"             022220    033330   ",
"   000000    022220    033330   ",
"   011110    022220    033330   ",
"   011110    000000    000000   ",
"   011110                       ",
"   011110                       ",
"   011110                       ",
"   011110                       ",
"   011110                       ",
"   011110                       ",
"   011110                       ",
"   011110       0000000000      ",
"   011110       0444444440      ",
"   011110       0444444440      ",
"   011110       0444444440      ",
"   011110       0444444440      ",
"   011110       0444444440      ",
"   011110       0444444440      ",
"   011110       0444444440      ",
"   011110       0444444440      ",
"   000000       0000000000      ",
"                                ",
"                                ",
"                                ",
"                                ",
"                                ",
"                                "
};

/* XPM */
const char * _av_allav[] = {
/*columns rows colors char-per-pixel */
"32 32 6 1",
"  c None",
"1 c magenta",
"2 c blue",
"3 c yellow",
"4 c green",
"0 c black",
"                                ",
"                                ",
"                                ",
"                                ",
"                                ",
"     0000000000000000000000     ",
"     0111112222222222333330     ",
"     0111112222222223333330     ",
"     0111111222222223333330     ",
"     0111111222222233333330     ",
"     0111111122222233333330     ",
"     0111111122222333333340     ",
"     0111111112222333334440     ",
"     0111111112223333444440     ",
"     0111111111223344444440     ",
"     0111111111234444444440     ",
"     0111111111144444444440     ",
"     0111111111444444444440     ",
"     0111111114444444444440     ",
"     0111111114444444444440     ",
"     0111111144444444444440     ",
"     0111111144444444444440     ",
"     0111111444444444444440     ",
"     0111111444444444444440     ",
"     0111114444444444444440     ",
"     0111114444444444444440     ",
"     0000000000000000000000     ",
"                                ",
"                                ",
"                                ",
"                                ",
"                                "
};

/* XPM */
const char * _av_classav[] = {
/*columns rows colors char-per-pixel */
"32 32 3 1"
"  c None"
"1 c magenta"
"4 c green"
"                                ",
"                                ",
"                                ",
"                                ",
"                                ",
"                                ",
"                                ",
"                                ",
"                                ",
"                                ",
"                                ",
"                                ",
"                                ",
"                                ",
"                                ",
"                                ",
"                                ",
"                                ",
"                                ",
"                                ",
"                                ",
"                                ",
"                                ",
"                                ",
"                                ",
"                                ",
"                                ",
"                                ",
"                                ",
"                                ",
"                                ",
"                                "
};

