/* XPM */
const char * _browser_plus[] = {
/* columns rows colors chars-per-pixel */
"32 32 3 1",
"  c None",
". c gray50",
"X c black",
/* pixels */
"                                ",
"               ..               ",
"              .XX.              ",
"             .XXXX.             ",
"             .XXXX.             ",
"             .XXXX.             ",
"             .XXXX.             ",
"             .XXXX.             ",
"             .XXXX.             ",
"             .XXXX.             ",
"             .XXXX.             ",
"             .XXXX.             ",
"             .XXXX.             ",
"   ...........XXXX...........   ",
"  .XXXXXXXXXXXXXXXXXXXXXXXXXX.  ",
" .XXXXXXXXXXXXXXXXXXXXXXXXXXXX. ",
" .XXXXXXXXXXXXXXXXXXXXXXXXXXXX. ",
"  .XXXXXXXXXXXXXXXXXXXXXXXXXX.  ",
"   ...........XXXX...........   ",
"             .XXXX.             ",
"             .XXXX.             ",
"             .XXXX.             ",
"             .XXXX.             ",
"             .XXXX.             ",
"             .XXXX.             ",
"             .XXXX.             ",
"             .XXXX.             ",
"             .XXXX.             ",
"             .XXXX.             ",
"              .XX.              ",
"               ..               ",
"                                "
};

/* XPM */
const char * _browser_plusfolder[] = {
/* columns rows colors chars-per-pixel */
"32 32 3 1",
"  c None",
". c gray75",
"X c black",
/* pixels */
"                                ",
"      .......                   ",
"     .+++++++.                  ",
"    .+++++++++.                 ",
"   .+++++++++++.                ",
"   .+++++++++++.                ",
"  .+++++++++++++..............  ",
" .++++++++++++++++++++++++++++. ",
" .++++++++++++++++++++++++++++. ",
" .++++++++++++++++++++++++++++. ",
" .+++++++++++++..+++++++++++++. ",
" .++++++++++++.XX.++++++++++++. ",
" .++++++++++++.XX.++++++++++++. ",
" .++++++++++++.XX.++++++++++++. ",
" .++++++++++++.XX.++++++++++++. ",
" .++++++++++++.XX.++++++++++++. ",
" .++++++++++++.XX.++++++++++++. ",
" .+++++.......XXXX......++++++. ",
" .++++.XXXXXXXXXXXXXXXXX.+++++. ",
" .++++.XXXXXXXXXXXXXXXXX.+++++. ",
" .+++++.......XXXX......++++++. ",
" .++++++++++++.XX.++++++++++++. ",
" .++++++++++++.XX.++++++++++++. ",
" .++++++++++++.XX.++++++++++++. ",
" .++++++++++++.XX.++++++++++++. ",
" .++++++++++++.XX.++++++++++++. ",
" .++++++++++++.XX.++++++++++++. ",
" .+++++++++++++..+++++++++++++. ",
" .++++++++++++++++++++++++++++. ",
" .++++++++++++++++++++++++++++. ",
"  ............................  ",
"                                "
};

/* XPM */
const char * _browser_rootplus[] = {
/* columns rows colors chars-per-pixel */
"32 32 4 1",
"  c None",
". c gray50",
"X c black",
"+ c blue",
/* pixels */
"                                ",
"               ..               ",
"              .XX.              ",
"             .XXXX.             ",
"             .XXXX.             ",
"             .XXXX.             ",
"             .XXXX.             ",
"             .XXXX.             ",
"             .XXXX.             ",
"             .XXXX.             ",
"             .XXXX.             ",
"             .XXXX.             ",
"             .XXXX.             ",
"   ...........XXXX...........   ",
"  .XXXXXXXXXXXXXXXXXXXXXXXXXX.  ",
" .XXXXXXXXXXXXXXXXXXXXXXXXXXXX. ",
" .XXXXXXXXXXXXXXXXXXXXXXXXXXXX. ",
"  .XXXXXXXXXXXXXXXXXXXXXXXXXX.  ",
"   ...........XXXX...........   ",
"             .XXXX.   ....      ",
"             .XXXX.  .++++.     ",
"             .XXXX.  .........  ",
"             .XXXX. .++++++..+. ",
"             .XXXX. .++++.XXX+. ",
"             .XXXX. .+++.XXX.+. ",
"             .XXXX. .++.XXX.++. ",
"             .XXXX. .+.XXX.+++. ",
"             .XXXX. .+XXX.++++. ",
"             .XXXX. .+..++++++. ",
"              .XX.   .........  ",
"               ..               ",
"                                "
};

/* XPM */
const char * _browser_plusContainer[] = {
/* columns rows colors chars-per-pixel */
"32 32 3 1",
"  c None",
". c gray50",
"X c black",
/* pixels */
"                                ",
"               ..               ",
"              .XX.              ",
"             .XXXX.             ",
"             .XXXX.             ",
"             .XXXX.             ",
"             .XXXX.             ",
"             .XXXX.             ",
"             .XXXX.             ",
"             .XXXX.             ",
"             .XXXX.             ",
"             .XXXX.             ",
"             .XXXX.             ",
"   ...........XXXX...........   ",
"  .XXXXXXXXXXXXXXXXXXXXXXXXXX.  ",
" .XXXXXXXXXXXXXXXXXXXXXXXXXXXX. ",
" .XXXXXXXXXXXXXXXXXXXXXXXXXXXX. ",
"  .XXXXXXXXXXXXXXXXXXXXXXXXXX.  ",
"   ...........XXXX...........   ",
"             .XXXX.   .....     ",
"             .XXXX.  .+.+.+.    ",
"             .XXXX.  .........  ",
"             .XXXX. .+ + + + +. ",
"             .XXXX. . + + + + . ",
"             .XXXX. .+ + + + +. ",
"             .XXXX. . + + + + . ",
"             .XXXX. .+ + + + +. ",
"             .XXXX. . + + + + . ",
"             .XXXX. .+ + + + +. ",
"              .XX.   .........  ",
"               ..               ",
"                                "
};

/* XPM */
const char * _browser_minus[] = {
/* columns rows colors chars-per-pixel */
"32 32 3 1",
"  c None",
". c gray50",
"X c black",
/* pixels */
"                                ",
"                                ",
"                                ",
"                                ",
"                                ",
"                                ",
"                                ",
"                                ",
"                                ",
"                                ",
"                                ",
"                                ",
"                                ",
"   ..........................   ",
"  .XXXXXXXXXXXXXXXXXXXXXXXXXX.  ",
" .XXXXXXXXXXXXXXXXXXXXXXXXXXXX. ",
" .XXXXXXXXXXXXXXXXXXXXXXXXXXXX. ",
"  .XXXXXXXXXXXXXXXXXXXXXXXXXX.  ",
"   ..........................   ",
"                                ",
"                                ",
"                                ",
"                                ",
"                                ",
"                                ",
"                                ",
"                                ",
"                                ",
"                                ",
"                                ",
"                                ",
"                                "
};

/* XPM */
const char * _browser_columns[] = {
/* columns rows colors chars-per-pixel */
"32 32 3 1",
"  c None",
". c gray50",
"X c black",
/* pixels */
"                                ",
" XXXXXXXXXXXXXXXXXXXXXXXXXXXXXX ",
" .....X............X.......X... ",
" .....X............X.......X... ",
" .....X............X.......X... ",
" .....X............X.......X... ",
" .....X............X.......X... ",
" XXXXXXXXXXXXXXXXXXXXXXXXXXXXXX ",
"      X            X       X    ",
"      X            X       X    ",
"      X            X       X    ",
"      X            X       X    ",
"      X            X       X    ",
"      X            X       X    ",
"      X            X       X    ",
"      X            X       X    ",
"      X            X       X    ",
"      X            X       X    ",
"      X            X       X    ",
"      X            X       X    ",
"      X            X       X    ",
"      X            X       X    ",
"      X            X       X    ",
"      X            X       X    ",
"      X            X       X    ",
"      X            X       X    ",
"      X            X       X    ",
"      X            X       X    ",
"      X            X       X    ",
"      X            X       X    ",
"      X            X       X    ",
"                                "
};

/* XPM */
const char * _browser_pageinfo[] = {
/* columns rows colors chars-per-pixel */
"32 32 3 1",
"  c None",
". c gray50",
"X c black",
/* pixels */
"                                ",
"                                ",
"               XXXX             ",
"              XXXXXX            ",
"             XXXXXXXX           ",
"             XXXXXXXX           ",
"             XXXXXXX            ",
"              XXXXXX            ",
"               XXXX             ",
"                                ",
"                                ",
"             XXXXXX             ",
"          XXXXXXXXX             ",
"       XXXXXXXXXXXX             ",
"         XXXXXXXXXX             ",
"           XXXXXXX     .        ",
"            XXXXXX              ",
"            XXXXXX              ",
"            XXXXXX              ",
"           XXXXXXX              ",
"           XXXXXXX              ",
"           XXXXXX               ",
"           XXXXXX               ",
"           XXXXXX               ",
"          XXXXXXX  XX           ",
"          XXXXXXXXXXXX          ",
"           XXXXXXXXXXX          ",
"           XXXXXXXXXX           ",
"            XXXXXXX             ",
"                                ",
"                                ",
"                                "
};

/* XPM */
const char * _browser_filters_old[] = {
/* columns rows colors chars-per-pixel */
"32 32 3 1",
"  c None",
". c gray50",
"X c black",
/* pixels */
"                                ",
"                                ",
"                                ",
"       X                X       ",
"       X                X       ",
"      X                  X      ",
"      X                  X      ",
"     X                    X     ",
"     X                    X     ",
"    X                      X    ",
"    X                      X    ",
"   X                        X   ",
"   X        X     X         X   ",
"  X          X    X          X  ",
"  X           X  X           X  ",
" X             X XXX          X ",
" X          XXX X             X ",
"  X           X  X           X  ",
"  X          X    X          X  ",
"   X         X     X        X   ",
"   X                        X   ",
"    X                      X    ",
"    X                      X    ",
"     X                    X     ",
"     X                    X     ",
"      X                  X      ",
"      X                  X      ",
"       X                X       ",
"       X                X       ",
"                                ",
"                                ",
"                                "
};

/* XPM */
const char * _browser_iconsize[] = {
/* columns rows colors chars-per-pixel */
"32 32 3 1",
"  c None",
". c gray50",
"X c black",
/* pixels */
"                                ",
"                                ",
"  XXXXXXXXXXXXXXXXXXXXXXXXXXXXXX",
"  XXXXXXXXXXXXXXXXXXXXX    X    ",
"  XX                 XX   .X.   ",
"  XX                 XX   XXX   ",
"  XX                 XX  .XXX.  ",
"  XX                 XX  X.X.X  ",
"  XX                 XX .X X X. ",
"  XX                 XX  . X .  ",
"  XX                 XX    X    ",
"  XX                 XX    X    ",
"  XX                 XX    X    ",
"  XX                 XX    X    ",
"  XX                 XX    X    ",
"  XX                 XX    X    ",
"  XX                 XX  . X .  ",
"  XX                 XX .X X X. ",
"  XX                 XX  X.X.X  ",
"  XX                 XX  .XXX.  ",
"  XX                 XX   XXX   ",
"  XX                 XX   .X.   ",
"  XXXXXXXXXXXXXXXXXXXXX    X    ",
"  XXXXXXXXXXXXXXXXXXXXXXXXXXXXXX",
"  X                   X         ",
"  X     .        .    X         ",
"  X   .XX.      .XX.  X         ",
"  X .XX.         .XX. X         ",
"  XXXXXXXXXXXXXXXXXXXXX         ",
"  X .XX.         .XX. X         ",
"  X   .XX.     .XX.   X         ",
"  X     .       .     X         "
};

/* XPM */
const char *_browser_filters[]={
"32 32 4 1",
". c None",
"# c #000000",
"b c #8381ff",
"a c #ffffff",
"................................",
"................................",
".........##############.........",
".....#####aaaaaaaaaaaa#####.....",
"...###aaaaaaaaaaaaaaaaaaaa###...",
"..##aaaaaaaaaaaaaaaaaaaaaaaa##..",
"..#aaaaaa##############aaaaaa#..",
"..##aa####################aa##..",
"..############################..",
"...##########################...",
"....##bbb##############bbb##....",
"......#bbbbbbbbbbbbbbbbbb#......",
".......#bbbbbbbbbbbbbbbb#.......",
"........##bbbbbbbbbbbb##........",
"..........#bbbbbbbbbb#..........",
"...........#bbbbbbbb#...........",
"............#bbbbbb#............",
".............#bbbb#.............",
".............#bbbb#.............",
".............#bbbb#.............",
".............#bbbb#.............",
".............#bbbb#.............",
".............#bbbb#.............",
".............#bbbb#.............",
".............#bbbb#.............",
".............#bbbb#.............",
".............#bbb#..............",
".............#b##...............",
".............##.................",
".............#..................",
"................................",
"................................"};

/* XPM */
const char *_browser_eye[]={
"32 32 3 1",
". c None",
"# c #000000",
"% c #888888",
"................................",
"................................",
"................................",
"................................",
"................................",
"................................",
"..............#..#..............",
"..........#..#..#...............",
".........#....#..#.....#........",
"......#...#.%######...#.........",
".....#...%###....%###.#....#....",
"..#...#%##..........%##...#...#.",
".#...%##.....####.....%##..#.#..",
"..#%##......#....#......%##..#..",
".%##.......#......#.......%##...",
".#%.......#....#...#........%#..",
"..#%......#...#....#.........%#.",
"...##%.....#......#.........##..",
".....#%.....#....#........##%...",
"......##%....####.......##%.....",
"........###%.........###%.......",
"...........###%...###%..........",
"..............####%.............",
"................................",
"................................",
"................................",
"................................",
"................................",
"................................",
"................................",
"................................",
"................................"};

/* XPM */
const char *_browser_turnspeconoff[]={
"32 32 3 1",
". c None",
"# c #000000",
"% c #888888",
"................................",
".##############################.",
".#...........................##.",
".#..........................#.#.",
".#.........................#..#.",
".#........................#...#.",
".#.......................#....#.",
".#......................#.%%..#.",
".#.....................#.%##%.#.",
".#....................#..%##%.#.",
".#...................#....%%..#.",
".#..................#.........#.",
".#.................#..........#.",
".#................#.%%....%%..#.",
".#...............#.%##%..%##%.#.",
".#..............#..%##%..%##%.#.",
".#.............#....%%....%%..#.",
".#............#...............#.",
".#...........#................#.",
".#..........#.%%....%%....%%..#.",
".#.........#.%##%..%##%..%##%.#.",
".#........#..%##%..%##%..%##%.#.",
".#.......#....%%....%%....%%..#.",
".#......#.....................#.",
".#.....#......................#.",
".#....#.%%....%%....%%....%%..#.",
".#...#.%##%..%##%..%##%..%##%.#.",
".#..#..%##%..%##%..%##%..%##%.#.",
".#.#....%%....%%....%%....%%..#.",
".#%...........................#.",
".##############################.",
"................................"};

/* XPM */
const char *_browser_folders[]={
"32 32 4 1",
"  c None",
"+ c gray75",
". c gray25",
"X c black",
/* pixels */
"                                ",
"      .......                   ",
"     .+++++++.                  ",
"    .+++++++++.                 ",
"   .+++++++++++.                ",
"   .+++++++++++.                ",
"  .+++++++++++++..............  ",
" .++++++++++++++++++++++++++++. ",
" .++++++++++++++++++++++++++++. ",
" .++++++++X+++++++++++++++++++. ",
" .+++++++.X.++++++++++++++++++. ",
" .+++++++.X.+++++++++++X++++++. ",
" .+++++...X..+++++++++X+++++++. ",
" .++++XXXXXXXXX++++++X++++++++. ",
" .+++++...X..+++++++X+++++++++. ",
" .+++++++.X.+++++++X++++++++++. ",
" .+++++++.X.++++++X+++++++++++. ",
" .++++++++X++++++X++++++++++++. ",
" .++++++++++++++X+++++++++++++. ",
" .+++++++++++++X++++++++++++++. ",
" .++++++++++++X+++++++++++++++. ",
" .+++++++++++X++++++++++++++++. ",
" .++++++++++X+++++.......+++++. ",
" .+++++++++X+++++XXXXXXXXX++++. ",
" .++++++++X+++++++.......+++++. ",
" .+++++++X++++++++++++++++++++. ",
" .++++++++++++++++++++++++++++. ",
" .++++++++++++++++++++++++++++. ",
" .++++++++++++++++++++++++++++. ",
" .++++++++++++++++++++++++++++. ",
"  ............................  ",
"                                "};

/* XPM */
const char *_browser_refresh[]={
"32 32 3 1",
" 	c None",
".	c #888888",
"+	c #000000",
"                                ",
"                                ",
"           .++++++++.           ",
"          ++++++++++++          ",
"        ++++++++++++++++        ",
"       ++++++++++++++++++       ",
"      .+++++++++++++++++++      ",
"     .+++++.    .++++++++++ ++  ",
"     .+++.        .++++++++.++  ",
"     .++.          .++++++++++  ",
"                    .+++++++++  ",
"                     .++++++++  ",
"                   ++++++++++.  ",
"   .               ++++++++++   ",
"   .++              +++++++++   ",
"   +++++              +++++++   ",
"   +++++++              +++++   ",
"   +++++++++              ++.   ",
"   ++++++++++               .   ",
"  .++++++++++                   ",
"  ++++++++.                     ",
"  +++++++++.                    ",
"  ++++++++++.          .++.     ",
"  ++.++++++++.        .+++.     ",
"  ++ ++++++++++.    .+++++.     ",
"      +++++++++++++++++++.      ",
"       ++++++++++++++++++       ",
"        ++++++++++++++++        ",
"          ++++++++++++          ",
"           .++++++++.           ",
"                                ",
"                                "};
