/* XPM */
const char * _clr_limits[] = {
/* columns rows colors chars-per-pixel */
"32 32 10 1",
"  c None",
". c gray50",
"X c black",
"1 c red",
"2 c orange",
"3 c yellow",
"4 c green",
"5 c cyan",
"6 c blue",
"7 c violet",
/* pixels */
"                                ",
"                                ",
"                                ",
"                                ",
"                                ",
"                                ",
"                                ",
"    XXXXXXX             XXXXXXX ",
"     X   X               X   X  ",
"     X   X               X   X  ",
"      X X                 X X   ",
"      X X                 X X   ",
"       X                   X    ",
"  XXXXXXXXXXXXXXXXXXXXXXXXXXXX  ",
"  X11122233344455566677777777X  ",
"  X11122233344455566677777777X  ",
"  X11122233344455566677777777X  ",
"  X11122233344455566677777777X  ",
"  XXXXXXXXXXXXXXXXXXXXXXXXXXXX  ",
"    X                 X         ",
"   X X               X X        ",
"   X X               X X        ",
"  X   X             X   X       ",
"  X   X             X   X       ",
" XXXXXXX           XXXXXXX      ",
"                                ",
"                                ",
"                                ",
"                                ",
"                                ",
"                                ",
"                                "
};

