/* XPM */
const char * _clr_class[] = {
/* columns rows colors chars-per-pixel */
"32 32 7 1",
"  c None",
". c gray50",
"X c black",
"1 c red",
"2 c yellow",
"3 c green",
"4 c blue",
/* pixels */
"                                ",
" 44444444              11111111 ",
" 44444444              11111111 ",
" 44444444              11111111 ",
" 44444444              11111111 ",
" 44444444              11111111 ",
" 44444444              11111111 ",
" 444444XXXX          XXXX111111 ",
" 444444XX              XX111111 ",
"       X X            X X       ",
"       X  X          X  X       ",
"           X        X           ",
"            X      X            ",
"             X    X             ",
"              X  X              ",
"               ..               ",
"               ..               ",
"              X  X              ",
"             X    X             ",
"            X      X            ",
"           X        X           ",
"       X  X          X  X       ",
"       X X            X X       ",
" 222222XX              XX       ",
" 222222XXXX         XXXXX333333 ",
" 22222222              33333333 ",
" 22222222              33333333 ",
" 22222222              33333333 ",
" 22222222              33333333 ",
" 22222222              33333333 ",
" 22222222              33333333 ",
"                                "
};

/* XPM */
const char *_clr_refresh[]={
"32 32 3 1",
" 	c None",
".	c #888888",
"+	c #000000",
"                                ",
"                                ",
"           .++++++++.           ",
"          ++++++++++++          ",
"        ++++++++++++++++        ",
"       ++++++++++++++++++       ",
"      .+++++++++++++++++++      ",
"     .+++++.    .++++++++++ ++  ",
"     .+++.        .++++++++.++  ",
"     .++.          .++++++++++  ",
"                    .+++++++++  ",
"                     .++++++++  ",
"                   ++++++++++.  ",
"   .               ++++++++++   ",
"   .++              +++++++++   ",
"   +++++              +++++++   ",
"   +++++++              +++++   ",
"   +++++++++              ++.   ",
"   ++++++++++               .   ",
"  .++++++++++                   ",
"  ++++++++.                     ",
"  +++++++++.                    ",
"  ++++++++++.          .++.     ",
"  ++.++++++++.        .+++.     ",
"  ++ ++++++++++.    .+++++.     ",
"      +++++++++++++++++++.      ",
"       ++++++++++++++++++       ",
"        ++++++++++++++++        ",
"          ++++++++++++          ",
"           .++++++++.           ",
"                                ",
"                                "};
