/* XPM */
const char * _clr_pbrush[] = {
/* columns rows colors chars-per-pixel */
"32 32 6 1",
"  c None",
"1 c magenta",
"2 c blue",
"3 c yellow",
"4 c green",
"0 c black",
"                                ",
"                   0000         ",
"                  0    0        ",
"   111111    22220      03333   ",
"   111111    2222000000003333   ",
"   111111    22220      03333   ",
"   111111    222220    033333   ",
"   111111    222220    033333   ",
"   111111    222220    033333   ",
"                   0  0         ",
"                   0000         ",
"                   0000         ",
"              00000 00 00000    ",
"   111111    40            04   ",
"   111111    4000000000000004   ",
"   111111    4440000000000444   ",
"   111111    4440000000000444   ",
"   111111    4440000000000444   ",
"   111111    4440000000000444   ",
"                0000000000      ",
"                0000000000      ",
"                000000000       ",
"                000000000       ",
"   111111    4440000000044444   ",
"   111111    4400000000044444   ",
"   111111    4400000000444444   ",
"   111111    400000000 444444   ",
"   111111   000000000  444444   ",
"   111111 000000004    444444   ",
"                                ",
"                                ",
"                                "
};

/* XPM */
const char * _clr_brush[] = {
/* columns rows colors chars-per-pixel */
"32 32 2 1",
"  c None",
"0 c black",
"                                ",
"           0000000000           ",
"          0          0          ",
"         0            0         ",
"         00000000000000         ",
"         0            0         ",
"          0          0          ",
"           0        0           ",
"            0      0            ",
"            0      0            ",
"            0      0            ",
"          00        00          ",
"        0000000000000000        ",
"        0     0  0     0        ",
"        0000000000000000        ",
"          000 0000 000          ",
"          00 0 00 0 00          ",
"          000 0000 000          ",
"          00 0 00 0 00          ",
"          000 0000 000          ",
"          00 0 00 0 00          ",
"          000 0000 000          ",
"          00 0 00 0 00          ",
"          000 0000 000          ",
"         0000000000000          ",
"       000000000000000          ",
"     00000000000000000          ",
"   000000000000000000           ",
"  00000000000000000             ",
"     00000000000                ",
"        000000                  ",
"                                "
};
/* XPM */
const char * _clr_rect[] = {
/* columns rows colors chars-per-pixel */
"32 32 2 1",
"  c None",
"0 c black",
"                                ",
"                                ",
"  0000  00  00  00  00  00  00  ",
"  00  00  00  00  00  00  0000  ",
"   0                         0  ",
"   0                         0  ",
"  0                         0   ",
"  0                         0   ",
"   0                         0  ",
"   0                         0  ",
"  0                         0   ",
"  0                         0   ",
"   0                         0  ",
"   0                         0  ",
"  0                         0   ",
"  0                         0   ",
"   0                         0  ",
"   0                         0  ",
"  0                         0   ",
"  0                         0   ",
"   0                         0  ",
"   0                         0  ",
"  0                         0   ",
"  0                         0   ",
"   0                         0  ",
"   0                         0  ",
"  0                         0   ",
"  0                         0   ",
"  0000  00  00  00  00  00  00  ",
"  00  00  00  00  00  00  0000  ",
"                                ",
"                                "
};
/* XPM */
const char * _clr_picker[] = {
/* columns rows colors chars-per-pixel */
"32 32 10 1",
"  c None",
". c gray50",
"X c black",
"1 c red",
"2 c orange",
"3 c yellow",
"4 c green",
"5 c cyan",
"6 c blue",
"7 c violet",
/* pixels */
"                                ",
"                                ",
"                                ",
"             XXXXXX             ",
"          XXX222222XXX          ",
"       XXX222222222233XXX       ",
"      X122222222222233333X      ",
"     X11222222222223333333X     ",
"     X11122222222223333333X     ",
"     X11112222222223333333X     ",
"    X1111112222222333333333X    ",
"    X1111112222222333333333X    ",
"    X1111111222223333333333X    ",
"   X111111111222233333333444X   ",
"   X111111111122233333444444X   ",
"   X111111111112333444444444X   ",
"   X777777777776444444444444X   ",
"   X777777777766544444444444X   ",
"   X777777777666655544444444X   ",
"    X7777777666665555554444X    ",
"    X7777776666665555555544X    ",
"    X7777776666666555555555X    ",
"     X77776666666655555555X     ",
"     X77766666666655555555X     ",
"     X77666666666665555555X     ",
"      X766666666666555555X      ",
"       XXX666666666555XXX       ",
"          XXX666666XXX          ",
"             XXXXXX             ",
"                                ",
"                                ",
"                                "
};

/* XPM */
const char * _clr_addcolor[] = {
/* columns rows colors chars-per-pixel */
"32 32 10 1",
"  c None",
". c gray50",
"X c black",
"1 c red",
"2 c orange",
"3 c yellow",
"4 c green",
"5 c cyan",
"6 c blue",
"7 c violet",
/* pixels */
"                                ",
"                                ",
"          X                     ",
"         XXX XXXXXX             ",
"         XXXX222222XXX          ",
"       XXX2X2222222233XXX       ",
"      X12XXX2222222233333X      ",
"     X112XXX22222223333333X     ",
"     X111XXX22222223333333X     ",
"   XXXXXXXXXXXXXX223333333X     ",
"  XXXXXXXXXXXXXXXX333333333X    ",
"   XXXXXXXXXXXXXX2333333333X    ",
"    X1111XXX222223333333333X    ",
"   X11111XXX1222233333333444X   ",
"   X11111XXX1122233333444444X   ",
"   X11111XXX1112333444444444X   ",
"   X77777XXX7776444444444444X   ",
"   X777777X77766544444444444X   ",
"   X777777777666655544444444X   ",
"    X7777777666665555554444X    ",
"    X7777776666665555555544X    ",
"    X7777776666666555555555X    ",
"     X77776666666655555555X     ",
"     X77766666666655555555X     ",
"     X77666666666665555555X     ",
"      X766666666666555555X      ",
"       XXX666666666555XXX       ",
"          XXX666666XXX          ",
"             XXXXXX             ",
"                                ",
"                                ",
"                                "
};
