/* XPM */
const char * _excl_excluder[] = {
/*columns rows colors char-per-pixel */
"32 32 3 1",
"  c None",
"1 c black",
"2 c red",
"                                ",
"                                ",
"                                ",
"                                ",
"                                ",
"                                ",
"                                ",
"                                ",
" 2              2               ",
"  2            2                ",
"   211111111112  111111111111   ",
"   12        21  1          1   ",
"   1 2      2 1  1          1   ",
"   1  2    2  1  1          1   ",
"   1   2  2   1  1          1   ",
"   1    22    1  1          1   ",
"   1    22    1  1          1   ",
"   1   2  2   1  1          1   ",
"   1  2    2  1  1          1   ",
"   1 2      2 1  1          1   ",
"   12        21  1          1   ",
"   211111111112  111111111111   ",
"  2            2                ",
" 2              2               ",
"                                ",
"                                ",
"                                ",
"                                ",
"                                ",
"                                ",
"                                ",
"                                "
};
