/* XPM */
const char * _exp_dat[] = {
/* columns rows colors chars-per-pixel */
"32 32 2 1",
"  c None",
"X c black ",
/* pixels */
"                                ",
"                                ",
"                                ",
"                                ",
"                                ",
"                                ",
"                                ",
"                                ",
"                                ",
"                                ",
"            X           X       ",
"            X           X       ",
"            X           X       ",
"            X         XXXXX     ",
"            X           X       ",
"            X           X       ",
"            X           X       ",
"            X           X       ",
"        XXX X   XXXX    X       ",
"       X   XX  X    X   X       ",
"       X    X  X    X   X       ",
"       X    X  X    X   X       ",
"  XX   X    X  X    X   X    X  ",
"  XX    XXXX    XXXX X   XXXX   ",
"                                ",
"                                ",
"                                ",
"                                ",
"                                ",
"                                ",
"                                ",
"                                "
};

/* XPM */
const char * _exp_qti[] = {
/* columns rows colors chars-per-pixel */
"32 32 2 1",
"  c None",
"X c black ",
/* pixels */
"                                ",
"                                ",
"                                ",
"                                ",
"                                ",
"                                ",
"                                ",
"                                ",
"                                ",
"                                ",
"               X                ",
"               X                ",
"               X                ",
"             XXXXX              ",
"               X                ",
"               X                ",
"               X        X       ",
"               X                ",
"        XXX X  X        X       ",
"       X   XX  X        X       ",
"       X    X  X        X       ",
"       X    X  X        X       ",
"  XX   X   XX  X    X   X    X  ",
"  XX    XXX X   XXXX     XXXX   ",
"            X                   ",
"            X                   ",
"            X                   ",
"            X                   ",
"            X                   ",
"            X                   ",
"                                ",
"                                "
};
