/* XPM */
const char * _fft_apply[] = {
/* columns rows colors chars-per-pixel */
"32 32 3 1",
"  c None",
". c blue",
"c c red",
/* pixels */
"                                ",
"                                ",
"                                ",
"                                ",
"                                ",
"                                ",
"                                ",
"    cc      cc                  ",
"   c  c    c  c                 ",
"   c  c    c  c                 ",
"...............c                ",
"  c    c  c    .                ",
"  c    c  c    .                ",
"cc      cc     .                ",
"               .c               ",
"               .c               ",
"               .c               ",
"               .c               ",
"               . c              ",
"               . c              ",
"               . c              ",
"               .  c             ",
"               .   c            ",
"               .    c           ",
"               .     cccccc     ",
"                ................",
"                              cc",
"                                ",
"                                ",
"                                ",
"                                ",
"                                "
};
