/* XPM */
const char * file_browse[] = {
/* columns rows colors chars-per-pixel */
"32 32 257 2",
"   c black",
".  c #000000801515",
"X  c #000000002424",
"o  c #030306062E2E",
"O  c #000000003B3B",
"+  c #05050E0E3333",
"@  c #010102824C4C",
"#  c #05050C0C4242",
"$  c #0000000055D5",
"%  c #008001815B5B",
"&  c #090917984949",
"*  c #080816165757",
"=  c #0A0A1B1B5959",
"-  c #000000806363",
";  c #000000006E18",
":  c #05050D0D6E6E",
">  c #007701647310",
",  c #04DA0B617B25",
"<  c #040409097373",
"1  c #090918186D6D",
"2  c #080814146262",
"3  c #070711117F7F",
"4  c #080812937A7A",
"5  c #0989181874F4",
"6  c #0E0E25256C6C",
"7  c #0E8E27277878",
"8  c #098913138181",
"9  c #0B0B19C48630",
"0  c #0A8A1D1D8989",
"q  c #0E0E24A48585",
"w  c #0F0F29298E8E",
"e  c #0D0D23238989",
"r  c #0F0F28289191",
"t  c #141428288F8F",
"y  c #131321218E8E",
"u  c #14142AAB9817",
"i  c #131332328D8D",
"p  c #12BD32DD9999",
"a  c #16C13BE69B45",
"s  c #191933B49C9C",
"d  c #16C1368CAC01",
"f  c #15153838AFAF",
"g  c #1F1F3636A3A3",
"h  c #189936B6AAAA",
"j  c #1B9C3F3FA524",
"k  c #15153A3AA2A2",
"l  c #28282F2F8E8E",
"z  c #28283B3B9999",
"x  c #21213F3FA8A8",
"c  c #17174242A7A7",
"v  c #19C44399A6FC",
"b  c #1B1B46C7A8A8",
"n  c #1D1D4BB2ABC5",
"m  c #17174242AEAE",
"M  c #1B1B47C8B938",
"N  c #1EC951FCB207",
"B  c #343441419A9A",
"V  c #272743C4ABAB",
"C  c #22A34949AC2C",
"Z  c #2D2D4BCCAD2D",
"A  c #22224545A6A6",
"S  c #2B2B4F4FBBBB",
"D  c #29294A4AB635",
"F  c #2C2C5050AFAF",
"G  c #20EE5555B380",
"H  c #227859AFB761",
"J  c #234E5CDDBA64",
"K  c #28285858B6B6",
"L  c #2C2C5959B8B8",
"P  c #35354A4AA1A1",
"I  c #30304B4BB3B3",
"U  c #328852FDB409",
"Y  c #39E45D07B4B4",
"T  c #34345A5ABBBB",
"R  c #252560B6BCBC",
"E  c #34B562E3BC3C",
"W  c #3D3D6262B8B8",
"Q  c #1B9C57D8C443",
"!  c #1D1D5050D7D7",
"~  c #1F1F6161CACA",
"^  c #20205454C1C1",
"/  c #237953A9D57F",
"(  c #30305858C2C2",
")  c #20205757E0E0",
"_  c #24A463E4C646",
"`  c #27276D6DCFCF",
"'  c #2C2C6666C0C0",
"]  c #26266969D352",
"[  c #2C2C65E6D9D9",
"{  c #2C2C7676DBDB",
"}  c #3CBD64E4C1C1",
"|  c #3C3C6F6FC4C4",
" . c #34B56565D757",
".. c #3CBD6A6AD4D4",
"X. c #39BA6B6BD8D8",
"o. c #3DBE7474D5D5",
"O. c #39BA78F8DC5C",
"+. c #2F2F6D6DE5E5",
"@. c #25A678F8EBEB",
"#. c #33336F6FEBEB",
"$. c #38386F6FE5E5",
"%. c #31316F6FE4E4",
"&. c #34346E6EF0F0",
"*. c #3535721CE38D",
"=. c #38E3751FE58F",
"-. c #3CBD7ABAE5E5",
";. c #3EBF79FAEDED",
":. c #35E07777EAEA",
">. c #39BA7979FEFE",
",. c #29296969F8F8",
"<. c #43435E5EB2B2",
"1. c #45456767BFBF",
"2. c #44EF6C16BE68",
"3. c #474768E8B7B7",
"4. c #50506161ADAD",
"5. c #5C5C6B15B6B6",
"6. c #51D171F1BCBC",
"7. c #6C6C7D7DBFBF",
"8. c #44EF6A14C51A",
"9. c #4C4C78F8C8C8",
"0. c #43EE7923D9D9",
"q. c #54EE7AE1C4F7",
"w. c #535378F8C4C4",
"e. c #41017D7DE625",
"r. c #43437E7EEAEA",
"t. c #40407F7FFEFE",
"y. c #2E2E8181EEEE",
"u. c #37378585E7E7",
"i. c #3D3D8C8CEDED",
"p. c #35358A09F5F5",
"a. c #39398B8BF4F4",
"s. c #3CFD9393FE7E",
"d. c #47478181D7D7",
"f. c #4D4D8585DBDB",
"g. c #4C4C8A8ADADA",
"h. c #53D48201CC0B",
"j. c #5B5B8F39D47E",
"k. c #56568B8BDA59",
"l. c #5E5E9595DBDB",
"z. c #454582D8E690",
"x. c #4A4A8403EAEA",
"c. c #4A4A88DEE83D",
"v. c #459B832DFEFE",
"b. c #49498787FEFE",
"n. c #4CCD8B0BFEFE",
"m. c #420F96FDFDFD",
"M. c #46069A85FEFE",
"N. c #4BAE9E3BFEC3",
"B. c #54548A8AEB40",
"V. c #53208F28FEFE",
"C. c #5A5A93E9E9E9",
"Z. c #5C5C9898EEEE",
"A. c #54549292FEFE",
"S. c #5A2795C8FDFD",
"D. c #5D889A1AFEFE",
"F. c #5E5E9999F5F5",
"G. c #4EF9A0A0FEFE",
"H. c #543EA46CFED1",
"J. c #5B05A3A3FEFE",
"K. c #5CADAA74FEFE",
"L. c #64E48A09CACA",
"P. c #6A6A8888C7C7",
"I. c #6C6C8F8FCECE",
"U. c #64648E8ED0D0",
"Y. c #6F6F9090D0D0",
"T. c #7AFB8E0EC8C8",
"R. c #73738F8FCACA",
"E. c #77779393CCCC",
"W. c #7B7B9D9DD5D5",
"Q. c #61619797E6E6",
"!. c #61619696E8E8",
"~. c #64649E9EE867",
"^. c #61B79E9EFEFE",
"/. c #6D6D9F9FFEFE",
"(. c #6C6CAAAAEB95",
"). c #6598A1D4FEFE",
"_. c #6295AE7BFEFE",
"`. c #6A6AA65DFEFE",
"'. c #6EAEA9A9FEFE",
"]. c #6649B122FEFE",
"[. c #6C10B522FEFE",
"{. c #7474AF2FECEC",
"}. c #7B25AD02EF99",
"|. c #76F7A4A4E9E9",
" X c #7373ADC4FFB9",
".X c #7A7AAFAFFEFE",
"XX c #7171ABABF3F3",
"oX c #74DBB2B2EB84",
"OX c #7CFCB737ED6D",
"+X c #7CD2BA0FEDED",
"@X c #740DB4B4FFCC",
"#X c #7427BAEDFFFF",
"$X c #7B3BB5B5FFFF",
"%X c #7A08BC83FFE2",
"&X c #7D34C178FFFF",
"*X c #8E8E9595C7C7",
"=X c #8A8A9D9DD0D0",
"-X c #8585A8A8DADA",
";X c #9999AC2CD9D9",
":X c #8484AC2CF170",
">X c #8484BBFBEC2B",
",X c #8C8CBABAE867",
"<X c #8282B534FF7F",
"1X c #82DFBCD3FFFF",
"2X c #8B0BB130F877",
"3X c #B8B8BCBCDBDB",
"4X c #8686C0C0EFEF",
"5X c #8E8EC1C1EDED",
"6X c #8343C403FFFF",
"7X c #8787C8C8FFFF",
"8X c #8B35C452FFFF",
"9X c #8CA3CACAFFFF",
"0X c #9595C217EC41",
"qX c #9D9DC6C6ECEC",
"wX c #93A7CCA4FFFF",
"eX c #9999C8C8FBFB",
"rX c #942DD16AFFFF",
"tX c #9BC3D4ACFFEB",
"yX c #9E9ED8D8FFFF",
"uX c #A7A7C8C8EBEB",
"iX c #ACACC8C8FFFF",
"pX c #A1F7D37DFFFF",
"aX c #A56CDC86FFFF",
"sX c #AFAFD6D6FFFF",
"dX c #A8E8DE5EFFFF",
"fX c #B5B5C6C6E7E7",
"gX c #B7B7C8C8E8E8",
"hX c #BB3BCCCCECEC",
"jX c #BB3BD6D6F7F7",
"kX c #B9B9D5D5FFFF",
"lX c #BD3DDB5AF777",
"zX c #BE3EDB5AFFFF",
"xX c #B2B2D6D6F676",
"cX c #ADADE237FFFF",
"vX c #B332E463FFFF",
"bX c #BC66E791FFFF",
"nX c #CDCDDADAEFEF",
"mX c #C545DF5FF676",
"MX c #C241DBDBFC7C",
"NX c #C9C9D9D9F5B5",
"BX c #D2D2DFDFF3F3",
"VX c #C46EE338FDA7",
"CX c #C16BEA3FFFFF",
"ZX c #CA49E666FFFF",
"AX c #CD0CECECFFFF",
"SX c #CCCCE1E1F5F5",
"DX c #D494E524F676",
"FX c #D2D2ED97FFA9",
"GX c #D9D9E8E8F8F8",
"HX c #D2D2E1E1FAFA",
"JX c #D7D7F1F1FFFF",
"KX c #DD87F39DFFFF",
"LX c #E6E6F6F6FFFF",
"PX c #EC6CF676FFFF",
"IX c #EEEEF9F9FFFF",
"UX c #F5F5FCFCFFFF",
"YX c None",
/* pixels */
"YXYXYXYXYXYXYXYXYXYXYXYXYXYXYXn b n c a     YXYXYXYXYXYXYXYXYXYX",
"YXYXYXYXYXYXYXYXYXYXYXYXYXn n n Q @.@.c a &   YXYXYXYXYXYXYXYXYX",
"YXYXYXYXYXYXYXYXYXYXYXN N N ~ y.s.s.s.p.M p 6     YXYXYXYXYXYXYX",
"YXYXYXYXYXYXYXYXYXG N N ` a.M.M.M.M.m.s.s.Q p 7     YXYXYXYXYXYX",
"YXYXYXYXYXYXYXG N N { M.G.G.G.G.G.N.N.M.m.m.] p q &   YXYXYXYXYX",
"YXYXYXYXYXH H _ u.M.H.H.H.K.H.H.H.H.G.G.G.M.M.:.k e *     YXYXYX",
"YXYXR J J _ u.H.K.K.K.K.K._.K.K.K.K.H.H.H.G.N.M.a.m 0 1     YXYX",
"YXR J ` i.H.K.K._.].].].].].]._._.K.K.K.H.H.G.N.M.m.Q 0 5     YX",
"YXR |.G.K.K._.].[.[.[.[.[.[.#X[.[.[.]._.K.K.H.H.N.M.m.] 0 4     ",
"YXR B.jX@X_.[.[.[.#X%X&X&X&X&X#X%X[.[.[._.K.K.H.H.N.M.S.#.8     ",
"YXJ #.v.iXeX#X#X%X&X&X&X6X6X&X&X&X%X%X[.[._._.K.H.).S.>.,.8     ",
"YXJ #.>.t.<XsX%X&X7X7X9X9X9X9X9X7X&X&X%X[.[.$X`.A.&.D D ) ,     ",
"YXG :.v.b.b./.zX9X9X9XrXrXrXwX9X9X9X6X&X6X XV.$.( 7.hX5.! ,     ",
"YXG ;.b.n.V.V.D.kXdXtXyXyXyXyXtXrX9XpX@XA.X.} =XNX2X:.f ! ,     ",
"YXN r.V.A.A.S.D.D.eXbXaXcXcXaXdXwX.XS.o.w.;XNX:X-.=.%.d / <     ",
"YXN x.S.D.D.D.^.^.).<XHXbXbXpX XF.o.Y.gXlX}.c.0.e.-.*.h / >     ",
"YXn x.^.^.^.).`.`.`.'. XPX<XZ.d.W.nXlX}.~.d.N 8 z.-.$.u [ >     ",
"YXn B.).).`.'.'. X X X XkX@Xh.GXxX+X{.(.' k u T d.S x S r.>     ",
"YXn B.`.'. X X.X@X$X$X$XzX%Xq.lX4X+XoX{.} 9.k.U V x 5.5. .>     ",
"YXb C. X X@X$X%X<X$X1X1XMX1Xq.mX0X,X+XoXj.Y V U T.NX:XI  .>     ",
"YXv C.$X$X$X<X<X6X1X8X8XVX8Xw.DXuX0XL.2.F W ;XBX}.e.+.d  .>     ",
"YXv !.$X1X1X8X8X8X9X9XwXZX9X6.nXR.2.T w.fXMX}.c.e.=.%.d ..>     ",
"YXv Q.<X1X8X9X9XwXwXeXwXAXtX6.2.| I.DXxX}.C.0.v r.e.*.d ..>     ",
"YXa L XX8X9XeXwXtXtXyXpXAXyXj.-XGXxXOX(.g.K w 9 z.e.D g 0.>     ",
"YX  i C ~.wXtXtXpXyXaXaXJXaXh.SX4XOXoX(.N A } k.V U 8.s > $     ",
"YX    7 s h.tXyXdXdXcXcXKXcXh.VX,X>X+X{.l.l.I 1.8.y ; $ .       ",
"YXYX    = w Y qXcXvXbXbXKXbX6.SXqX0X>Xj.Y q.8.4 ; @             ",
"YXYXYX    + q A ,XbXAXAXPXAX6.GXuXL.6.L.<., ; O             YXYX",
"YXYXYXYX      5 t E.FXKXIXKX<.T.P.-XP > % O             YXYXYXYX",
"YXYXYXYXYXYX    2 9 4.DXUXPXhX-XB ; % X             YXYXYXYXYXYX",
"YXYXYXYXYXYXYX    # 4 z 3X*Xl < % .             YXYXYXYXYXYXYXYX",
"YXYXYXYXYXYXYXYX    o : , : @               YXYXYXYXYXYXYXYXYXYX"
};
