/* XPM */
const char * file_save[] = {
/* columns rows colors chars-per-pixel */
"22 22 109 2",
"   c black",
".  c #05B0065C3D93",
"X  c #0B0B0C0C42ED",
"o  c #101010104545",
"O  c #126813694AA0",
"+  c #131319194242",
"@  c #1A1A1B1B5252",
"#  c #1A1A23234D4D",
"$  c #1F1F20205656",
"%  c #1F1F29295252",
"&  c #242425255ADA",
"*  c #24242E2E5858",
"=  c #2AAB34345C5C",
"-  c #2C2C2D2D61E1",
";  c #3434347464A4",
":  c #353536366969",
">  c #30303A3A6363",
",  c #373738386C6C",
"<  c #3ABA3ABA6A2A",
"1  c #36B740C06969",
"2  c #3C3C46C76EEF",
"3  c #41EC41EC6E18",
"4  c #434343997272",
"5  c #43434E4E74F5",
"6  c #49CA49CA73F4",
"7  c #4BF653FE7C7C",
"8  c #4E4E59597F7F",
"9  c #46465E5E8C8C",
"0  c #545457578282",
"q  c #54545E5E8484",
"w  c #53D461618606",
"e  c #565664648989",
"r  c #5CB265658AE0",
"t  c #5C5C6A6A8F8F",
"y  c #57576C6C9696",
"u  c #58586D6D9797",
"i  c #646468688F8F",
"p  c #650F6DC39292",
"a  c #636371719494",
"s  c #6BEC75F69717",
"d  c #6E6E73739898",
"f  c #6CED79799B1A",
"g  c #73F47A7A9C9C",
"h  c #75757F7FA0A0",
"j  c #7B7B7F7FA1A1",
"k  c #737381C1A2A2",
"l  c #74748686A8A8",
"z  c #79F98606A4A4",
"x  c #7D7D8888A7A7",
"c  c #7EBE8D4DAC6C",
"v  c #7F7F9090AFAF",
"b  c #828282829E9E",
"n  c #852F8686A4A4",
"m  c #83C38ECEACEC",
"M  c #8D8D8D8DA6A6",
"N  c #8CE28D8DAC01",
"B  c #86069292AEAE",
"V  c #8F8F9292AFAF",
"C  c #89899717B332",
"Z  c #8E389AF0B5B5",
"A  c #94549454ADED",
"S  c #95959595B388",
"D  c #94949898B3B3",
"F  c #91E79EF4B963",
"G  c #9B5B9B5BB4B4",
"H  c #9D0A9D78BA4C",
"J  c #9595A3A3BDBD",
"K  c #9B1BA626BEBE",
"L  c #A1A1A1A1B6B6",
"P  c #A3B8A439BD12",
"I  c #ACACACACBDBD",
"U  c #9A9AA7A7C0C0",
"Y  c #9D36AA10C2C2",
"T  c #A5A5A5A5C116",
"R  c #A1A1ADADC56F",
"E  c #AB72ABC8C4C4",
"W  c #A5A5B117C794",
"Q  c #AEAEB0B0C5C5",
"!  c #AB11B64FCAFD",
"~  c #AEEEB9F9CD8D",
"^  c #B308B308C51A",
"/  c #B49DB4CBCB9C",
"(  c #B35DBABACDCD",
")  c #BB9BBBDBCE0D",
"_  c #B4E7BEF1D137",
"`  c #BDE2BDE2D3F8",
"'  c #B7B7C1C1D2D2",
"]  c #BABAC3C3D47E",
"[  c #C484C484D514",
"{  c #C4C4C4C4DBDB",
"}  c #C4C4CCCCDB85",
"|  c #C8C8C8C8D6D6",
" . c #CCA1CCA1DBDB",
".. c #CC4CD352DFDF",
"X. c #D2D2D3D3DF34",
"o. c #CECED4D4E1E1",
"O. c #D1D1D1D1E0E0",
"+. c #D4D4DADAE53A",
"@. c #DB74DC75E5E5",
"#. c #DD5DDD5DE968",
"$. c #E315E54BEC85",
"%. c #E666E968EFEF",
"&. c #E9E9E9E9EFEF",
"*. c #E7E7EAEAF0F0",
"=. c #EB15ED97F271",
"-. c #EE6EF170F575",
";. c #F3F3F3F3F6F6",
":. c #FFCAFFCAFFD7",
">. c None",
/* pixels */
">.>.>.>.>.>.>.>.>.>.>.>.>.>.>.>.>.>.>.>.>.>.",
">.>.>.>.>.>.>.>.>.>.>.>.>.>.>.>.>.>.>.>.>.>.",
">.>./ ) ( ) E P P P P H G A N M n i 7 4 >.>.",
">.>.) $.$.:.v l c :.:.:.:.:.:.:.:._ m < >.>.",
">.>./ +.@.:.9 u l :.:.:.:.:.:.:.:.R m < >.>.",
">.>.Q +.+.:.u c U :.:.:.:.:.:.:.:.Y k - >.>.",
">.>.E ..o.:.Y ] ..:.:.:.:.:.:.:.:.Z p - >.>.",
">.>.P } } -.-.-.-.*.*.*.*.%.%.$...z r & >.>.",
">.>.H } ' ` _ ( ~ ! W Y Y J Z c k a q & >.>.",
">.>.D ] ~ ! W R U J F C v k f a t e 7 $ >.>.",
">.>.N ' ! _ _ ! W K F V m z k f s w 5 @ >.>.",
">.>.m ~ _ :.:.;.=.$.#.@.X. .| [ ) t 2 @ >.>.",
">.>.n ! ( :.=.&.$.#.+.O. .| [ ) ^ w < O >.>.",
">.>.j W W #.{ ` ` / / E I P H G P 8 > O >.>.",
">.>.g Y U #.O.{ { ` ` / / E T H L 7 = O >.>.",
">.>.d F D O.` ` / Q E T P H S S G 5 * O >.>.",
">.>.p B m  .` ) / E E P H G A V S 2 * . >.>.",
">.>.r x x | ` / ^ E P P H S A A N < % . >.>.",
">.>.0 g s ) ^ ^ I I L G S A M b z = . . >.>.",
">.>.4 , ; 6 6 6 3 3 3 < < < ; ; ; o . . >.>.",
">.>.>.>.>.>.>.>.>.>.>.>.>.>.>.>.>.>.>.>.>.>.",
">.>.>.>.>.>.>.>.>.>.>.>.>.>.>.>.>.>.>.>.>.>."
};
