/* XPM */
const char * file_open[] = {
/* columns rows colors chars-per-pixel */
"18 18 45 1",
"  c black",
". c #000036368B8B",
"X c #09095757B1B1",
"o c #0D0D7474BBBB",
"O c #10107F7FC4C4",
"+ c #1B1B7272C4C4",
"@ c #1E1E7575C8C8",
"# c #1F1F7373E0E0",
"$ c #27276868C6C6",
"% c #21217878C8C8",
"& c #28287D7DCBCB",
"* c #2B2B7F7FCCCC",
"= c #5D5D7B7BB0B0",
"- c #13139494D5D5",
"; c #15159F9FDDDD",
": c #1616A9A9E4E4",
"> c #2F2F8282CECE",
", c #3A3A8181C8C8",
"< c #2C2CA1A1DDDD",
"1 c #43438A8ACDCD",
"2 c #49498E8ED0D0",
"3 c #45459292D5D5",
"4 c #4B4B9191D3D3",
"5 c #4D4D9393D3D3",
"6 c #53539797D5D5",
"7 c #55559999D6D6",
"8 c #52529C9CD9D9",
"9 c #59599B9BD8D8",
"0 c #6161A6A6DDDD",
"q c #6262C1C1E8E8",
"w c #7F7FD0D0EEEE",
"e c #8181B8B8E4E4",
"r c #8F8FBDBDE5E5",
"t c #A9A9BEBEDBDB",
"y c #9E9EE0E0F3F3",
"u c #B0B0C3C3DEDE",
"i c #B1B1C4C4DFDF",
"p c #B8B8CACAE2E2",
"a c #C8C8D6D6E9E9",
"s c #CFCFDBDBECEC",
"d c #D6D6E1E1EFEF",
"f c #E6E6ECECF5F5",
"g c #EDEDF2F2F8F8",
"h c #F5F5F7F7FBFB",
"j c None",
/* pixels */
"jjjjjjjjjjjjjjjjjj",
"jjjjjjjjjjjjjjjjjj",
"jjjjjjjjjjjjjjjjjj",
"j####  jjjjjjjjjjj",
"#rrrr.  jjjjjjjjjj",
"#9>>>>>>>>>>. jjjj",
"#6&&$$$$$$$$$$$$$ ",
"#5%$e0000000:yyy$ ",
"#2+$78888888;www$ ",
"#1$733333333-qq$  ",
"#,$7********O<<$ j",
"#$4@@@@@@@@@oO$ jj",
"#$XXXXXXXXXXXX$ jj",
"#=uttipasdfgh$  jj",
"#ututipasdfgh$  jj",
".............  jjj",
"              jjjj",
"              jjjj"
};
