/* XPM */
const char * _ICON_fish[] = {
/* columns rows colors chars-per-pixel */
"18 18 75 1",
"  c black",
". c #C4C430303030",
"X c #EAEA2F2F2828",
"o c #C5C553535353",
"O c #C6C659595959",
"+ c #C5C564646464",
"@ c #C5C56B6B6B6B",
"# c #C5C56F6F6F6F",
"$ c #C5C570707070",
"% c #C6C670707070",
"& c #C7C771717171",
"* c #C6C672727272",
"= c #C6C673737373",
"- c #C5C574747474",
"; c #C5C577777777",
": c #C4C47A7A7A7A",
"> c #C6C67B7B7B7B",
", c #C5C57F7F7F7F",
"< c #C6C67D7D7D7D",
"1 c gray75",
"2 c #C5C582828282",
"3 c #C6C680808080",
"4 c #C6C681818181",
"5 c #C6C683838383",
"6 c #C6C684848484",
"7 c #C6C685858585",
"8 c #C6C689898989",
"9 c #C7C78D8D8D8D",
"0 c #C6C68E8E8E8E",
"q c #C7C78E8E8E8E",
"w c #C7C792929292",
"e c #C7C793939393",
"r c #C5C59E9E9E9E",
"t c #C6C69D9D9D9D",
"y c #C7C79D9D9D9D",
"u c #C7C79E9E9E9E",
"i c #C7C7A0A0A0A0",
"p c #C7C7AAAAAAAA",
"a c #C6C6ACACACAC",
"s c #C7C7ACACACAC",
"d c #C7C7AFAFAFAF",
"f c #C6C6B2B2B2B2",
"g c #C7C7B5B5B5B5",
"h c #C6C6B7B7B7B7",
"j c #C7C7B6B6B6B6",
"k c #C4C4BBBBBBBB",
"l c #C6C6B8B8B8B8",
"z c #C7C7B9B9B9B9",
"x c #C6C6BBBBBBBB",
"c c #C7C7BABABABA",
"v c #C7C7BBBBBBBB",
"b c #C7C7BCBCBCBC",
"n c #C7C7BDBDBDBD",
"m c #C6C6BEBEBEBE",
"M c #C7C7BEBEBEBE",
"N c #C7C7BFBFBFBF",
"B c #C0C0C0C0C0C0",
"V c #C1C1C1C1C1C1",
"C c gray76",
"Z c #C3C3C3C3C3C3",
"A c #C4C4C3C3C3C3",
"S c #C6C6C1C1C1C1",
"D c #C7C7C0C0C0C0",
"F c #C6C6C3C3C3C3",
"G c #C7C7C2C2C2C2",
"H c #C7C7C3C3C3C3",
"J c gray77",
"K c #C5C5C5C5C5C5",
"L c #C6C6C4C4C4C4",
"P c #C6C6C5C5C5C5",
"I c #C7C7C4C4C4C4",
"U c #C7C7C5C5C5C5",
"Y c #C6C6C6C6C6C6",
"T c #C7C7C6C6C6C6",
"R c gray78",
/* pixels */
"YYRRYRRRYCCZYRRRRY",
"YYYRbXXXXX*bYYRRYh",
"RRR>XXOuYTNTRRR..*",
"RRNo*8ecYTRRRZk.uY",
"RRX#qe>XXYRZRC..RR",
"RR7eRRRs*XbZY..bRR",
"R.@s RRRSXXsY.7RRR",
"..+NRRRRYYu;..bRYR",
"R>,YRRRTRRY>..RRRR",
"RYXXRRRTYY7*7.vRYR",
"RRcXXTYYYX*bT9.TRR",
"RRTgXXqXXXbTTT.8RR",
"RRRRbX*XuTRRTRv.cY",
"RRRRRsXcRRRRTRT.r1",
"RRRRRYXXYRRRRRR.,Z",
"RRRRRRSXYRRRRRRf:Y",
"RRRYRRRRYYYYYRRYSY",
"RRRRRRRYYYY1ZYRRYY"
};
