/* XPM */
const char *_generators[]={
"32 32 3 1",
" 	c None",
".	c #888888",
"+	c #000000",
"                                ",
"                                ",
"      ..+++++++++               ",
"     ..+        +               ",
"    ...+        +               ",
"   ....+        +               ",
"  .....+        +               ",
"  .++++         +               ",
"  +             +.              ",
"  +             +.              ",
"  +             +.              ",
"  +             +.              ",
"  +             +.      .       ",
"  +             +.      +.      ",
"  +             +..     .+.     ",
"  +             +.. .+.+.+.+..  ",
"  +             +.. +.+.+.+.+.  ",
"  +++++++++++++++..     .+.     ",
"   .             +.     +.      ",
"   +             +.     .       ",
"   +             +.             ",
"   +             +.             ",
"   +             +.             ",
"   +++++++++++++++.             ",
"    .             +             ",
"    +             +             ",
"    +             +             ",
"    +             +             ",
"    +             +             ",
"    +++++++++++++++             ",
"                                ",
"                                "};
