/* XPM */
const char * _Gview_grid[] = {
/* columns rows colors chars-per-pixel */
"32 32 3 1",
"  c None",
". c gray50",
"X c black",
/* pixels */
"                                ",
"                                ",
"                                ",
"           X        X           ",
"           X        X           ",
"           X        X           ",
"           X        X           ",
"           X        X           ",
"           X        X           ",
"           X        X           ",
"           .        .           ",
"   XXXXXXX. .XXXXXX. .XXXXXXX   ",
"           .        .           ",
"           X        X           ",
"           X        X           ",
"           X        X           ",
"           X        X           ",
"           X        X           ",
"           X        X           ",
"           .        .           ",
"   XXXXXXX. .XXXXXX. .XXXXXXX   ",
"           .        .           ",
"           X        X           ",
"           X        X           ",
"           X        X           ",
"           X        X           ",
"           X        X           ",
"           X        X           ",
"           X        X           ",
"                                ",
"                                ",
"                                "
};

const char * _Gview_zoom[] = {
/* columns rows colors chars-per-pixel */
"32 32 3 1",
"  c None",
". c gray50",
"X c black",
/* pixels */
"                                ",
"                                ",
"             XXXXXX             ",
"           XX      XX           ",
"        X              X        ",
"      X                  X      ",
"                                ",
"     X                    X     ",
"                                ",
"    X                      X    ",
"                                ",
"    X                      X    ",
"    X                      X    ",
"   X                        X   ",
"   X                        X   ",
"   X                        X   ",
"   X                        X   ",
"   X                        X   ",
"   X                        X   ",
"    X                      X    ",
"    X                      X    ",
"                                ",
"    X                      X    ",
"                                ",
"     X                    X     ",
"                         XX     ",
"      X                 XXXX    ",
"       X               X  XXX   ",
"           XX      XX      XXX  ",
"             XXXXXX         XXX ",
"                             XX ",
"                                "
};
