/* XPM */
const char * _ICON_iconSize[] = {
/* columns rows colors chars-per-pixel */
"32 32 3 1",
"  c None",
". c gray50",
"X c black",
/* pixels */
"                                ",
"                                ",
"  XXXXXXXXXXXXXXXXXXXXXXXXXXXXXX",
"  XXXXXXXXXXXXXXXXXXXXX    X    ",
"  XX                 XX   .X.   ",
"  XX                 XX   XXX   ",
"  XX                 XX  .XXX.  ",
"  XX                 XX  X.X.X  ",
"  XX                 XX .X X X. ",
"  XX                 XX  . X .  ",
"  XX                 XX    X    ",
"  XX                 XX    X    ",
"  XX                 XX    X    ",
"  XX                 XX    X    ",
"  XX                 XX    X    ",
"  XX                 XX    X    ",
"  XX                 XX  . X .  ",
"  XX                 XX .X X X. ",
"  XX                 XX  X.X.X  ",
"  XX                 XX  .XXX.  ",
"  XX                 XX   XXX   ",
"  XX                 XX   .X.   ",
"  XXXXXXXXXXXXXXXXXXXXX    X    ",
"  XXXXXXXXXXXXXXXXXXXXXXXXXXXXXX",
"  X                   X         ",
"  X     .        .    X         ",
"  X   .XX.      .XX.  X         ",
"  X .XX.         .XX. X         ",
"  XXXXXXXXXXXXXXXXXXXXX         ",
"  X .XX.         .XX. X         ",
"  X   .XX.     .XX.   X         ",
"  X     .       .     X         "
};
