/* XPM */
const char * _FW_PageList[] = {
/* columns rows colors chars-per-pixel */
"32 32 2 1",
"  c None",
"X c black",
"                                ",
"   XXXXXX                       ",
"   X    X                       ",
"   X    X                       ",
"   X    X                       ",
"   X    X   XXXXXXXXXXXXXXXXXX  ",
"   XXXXXX                       ",
"                                ",
"                                ",
"   XXXXXX                       ",
"   X    X                       ",
"   X    X                       ",
"   X    X                       ",
"   X    X   XXXXXXXXXXXXXXXXXX  ",
"   XXXXXX                       ",
"                                ",
"                                ",
"   XXXXXX                       ",
"   X    X                       ",
"   X    X                       ",
"   X    X                       ",
"   X    X   XXXXXXXXXXXXXXXXXX  ",
"   XXXXXX                       ",
"                                ",
"                                ",
"   XXXXXX                       ",
"   X    X                       ",
"   X    X                       ",
"   X    X                       ",
"   X    X   XXXXXXXXXXXXXXXXXX  ",
"   XXXXXX                       ",
"                                "
};

/* XPM */
const char * _FW_WidgetList[] = {
/* columns rows colors chars-per-pixel */
"32 32 2 1",
"  c None",
"X c black",
"                                ",
"                                ",
"                                ",
"   XX                           ",
"   XXXX                         ",
"   XXXXXX   XXXXXXXXXXXXXXXXXX  ",
"   XXXX                         ",
"   XX                           ",
"                                ",
"                                ",
"                                ",
"   XX                           ",
"   XXXX                         ",
"   XXXXXX   XXXXXXXXXXXXXXXXXX  ",
"   XXXX                         ",
"   XX                           ",
"                                ",
"                                ",
"                                ",
"   XXXXX                        ",
"   XXXXX                        ",
"    XXX     XXXXXXXXXXXXXXXXXX  ",
"    XXX                         ",
"     X                          ",
"     X      XXXXXXXXXXXXXXXXXX  ",
"                                ",
"     X                          ",
"     X      XXXXXXXXXXXXXXXXXX  ",
"     X                          ",
"     X                          ",
"     XXXXXXXXXXXXXXXXXXXXXXXXX  ",
"                                "
};

/* XPM */
const char * _FW_print_32[] = {
"32 32 6 1",
" 	c None",
".	c #000000",
"+	c #FFFFFF",
"@	c #4B4B4B",
"#	c #7E7E7E",
"$	c #4371C3",
"                                ",
"                                ",
"             ..............     ",
"             .++++++++++++.     ",
"            .++++++++++++.      ",
"            .++..++++++++.      ",
"            .++..+......+.      ",
"            .++++++++++++.      ",
"            .+++++++++++.       ",
"           .++.........+.       ",
"           .++++++++++++.       ",
"           .++++++++++++.       ",
"           .+.........++.       ",
"          .++++++++++++.        ",
"          .++++++++++++.        ",
"          .+.........++.        ",
"    @@@@@@.++++++++++++@@@@@@@  ",
"   @###@$$$@@@@@@@@@$$@####@##@ ",
"  @###@$$$$$$$$$$$$$$@####@###@ ",
" @###@$$$$$$$$$$$$$$@####@#####@",
" @###@$$$$$$$$$$$$$$@####@#####@",
"@###@$$$$$$$$$$$$$$@####@######@",
"@###@$$$$$$$$$$$$$$@####@######@",
"@###@$$$$$$$$$$$$$$@####@######@",
"@###@$$$$$$$$$$$$$$@####@######@",
"@###@$$$$$$$$$$$$$$@####@######@",
"@###@$$$$$$$$$$$$$$@####@######@",
" @###@$$$$$$$$$$$$$$@####@####@ ",
" @###@$$...........$@####@####@ ",
"  @###@$$$$$$$$$$$$$$@####@##@  ",
"   @@@@@@@@@@@@@@@@@@@@@@@@@@   ",
"                                "};

/* XPM */
const char * _FW_print_24[] = {
"24 24 6 1",
" 	c None",
".	c #000000",
"+	c #FFFFFF",
"@	c #4B4B4B",
"#	c #7E7E7E",
"$	c #4371C3",
"                        ",
"                        ",
"           .........    ",
"          .++++++++.    ",
"          .++++++++.    ",
"          .+.+...++.    ",
"         .++++++++.     ",
"         .++++++++.     ",
"         .+.....++.     ",
"         .++++++++.     ",
"        .++++++++.      ",
"        .+.....++.      ",
"   @@@@@.++++++@@@@@@@  ",
"  @##@$$@@@@@@@$@###@#@ ",
" @##@$$$$$$$$$$@###@###@",
" @##@$$$$$$$$$$@###@###@",
"@##@$$$$$$$$$$@###@####@",
"@##@$$$$$$$$$$@###@####@",
"@##@$$$$$$$$$$@###@####@",
"@##@$$$$$$$$$$@###@####@",
"@###@$$$$$$$$$$@###@##@ ",
" @###@$$$$$$$$$$@##@##@ ",
"  @@@@@@@@@@@@@@@@@@@@  ",
"                        "};

/*XPM*/
const char * _FW_print_16[] = {
"16 16 6 1",
" 	c None",
".	c #000000",
"+	c #FFFFFF",
"@	c #4B4B4B",
"#	c #7E7E7E",
"$	c #4371C3",
"        ......  ",
"       .+++++.  ",
"       .+...+.  ",
"       .+++++.  ",
"      .+++++.   ",
"      .+...+.   ",
"      .+++++.   ",
"     .+++++.    ",
"   @@@@+++@@@@  ",
"  @##@@@@@##@#@ ",
" @##@$$$@##@###@",
"@##@$$$@##@####@",
"@##@$$$@##@####@",
"@##@$$$@##@###@ ",
" @##@$$$@##@#@  ",
"  @@@@@@@@@@@   "};
