/* XPM */
const char * _3Dview_export[] = {
/* columns rows colors chars-per-pixel */
"32 32 6 1",
"  c None",
": c gray75",
", c gray25",
". c gray50",
"X c black",
"0 c yellow",
/* pixels */
"                      XXXXXXXXXX",
"                       XXXXXXXXX",
"                        XX0000XX",
"                        XX0000XX",
"                       XX00000XX",
"                      XX000000XX",
"     XXXXXXXXXXXXXX  XX00000XXXX",
"    X                XX0000XXXXX",
"   X                  XX00XX  XX",
"  X                    XXXX    X",
" XXXXXXXXXXXXXXXXXXXX  XX   X   ",
" X:::::::::::...........     X  ",
" X:::::::::::............X   X  ",
" X::::::::::.............X   X  ",
" X:::::::::..............X   X  ",
" X:::::::::..............X   X  ",
" X::::::::...............X   X  ",
" X::::::::,..............X   X  ",
" X:::::::,.,.............X   X  ",
" X:::::::,,,.............X   X  ",
" X::::::,,,,,,...........X   X  ",
" X::::::,,,,,,,,,........X   X  ",
" X:::::,,,,,,,,,,,,......X   X  ",
" X::::,,,,,,,,,,,,,,,....X   X  ",
" X::::,,,,,,,,,,,,,,,,,..X   X  ",
" X:::,,,,,,,,,,,,,,,,,,,,X   X  ",
" X:::,,,,,,,,,,,,,,,,,,,,X   X  ",
" X::,,,,,,,,,,,,,,,,,,,,,X  X   ",
" X::,,,,,,,,,,,,,,,,,,,,,X X    ",
" X:,,,,,,,,,,,,,,,,,,,,,,XX     ",
" XXXXXXXXXXXXXXXXXXXXXXXXX      ",
"                                "
};
