/* XPM */
const char * _2Dview_marker[] = {
/* columns rows colors chars-per-pixel */
"32 32 4 1",
"  c None",
". c gray50",
"X c black",
"0 c red",
/* pixels */
"                                ",
"                                ",
"                                ",
"                                ",
"                                ",
"                                ",
"                                ",
"                                ",
"                                ",
"                                ",
"                                ",
"                                ",
"                                ",
"                                ",
"                                ",
"                                ",
"                                ",
"                                ",
"                                ",
"                                ",
"                                ",
"                      .......   ",
"                     .XXXXXXX.  ",
"                     .X     X.  ",
"                     .X     X.  ",
"                     .X     X.  ",
"                     .X     X.  ",
"                     .X     X.  ",
"                     .XXXXXXX.  ",
"                      .......   ",
"                                ",
"                                "
};

const char * _2Dview_zoom[] = {
/* columns rows colors chars-per-pixel */
"32 32 4 1",
"  c None",
". c gray50",
"X c black",
"0 c red",
/* pixels */
"                                ",
"               ..               ",
"              .XX.              ",
"             .XXXX.             ",
"            .XXXXXX.            ",
"           .XXXXXXXX.           ",
"          .XX..XX..XX.          ",
"         .XX. .XX. .XX.         ",
"         .X.  .XX.  .X.         ",
"       .. .   .XX.   . ..       ",
"      .XX.    .XX.    .XX.      ",
"     .XX.  0000000000  .XX.     ",
"    .XX.   0000000000   .XX.    ",
"   .XX.       .XX000     .XX.   ",
"  .XXX........XX000.......XXX.  ",
" .XXXXXXXXXXXXX000XXXXXXXXXXXX. ",
" .XXXXXXXXXXXX000XXXXXXXXXXXXX. ",
"  .XXX.......000XX........XXX.  ",
"   .XX.     000XX.       .XX.   ",
"    .XX.   0000000000   .XX.    ",
"     .XX.  0000000000  .XX.     ",
"      .XX.    .XX.    .XX.      ",
"       .. .   .XX.   . ..       ",
"         .X.  .XX.  .X.         ",
"         .XX. .XX. .XX.         ",
"          .XX..XX..XX.          ",
"           .XXXXXXXX.           ",
"            .XXXXXX.            ",
"             .XXXX.             ",
"              .XX.              ",
"               ..               ",
"                                "
};

/* XPM */
const char * _2Dview_keepar[] = {
/* columns rows colors chars-per-pixel */
"32 32 4 1",
"  c None",
". c gray50",
"X c black",
"0 c green",
/* pixels */
"                                ",
"               ..               ",
"              .XX.              ",
"             .XXXX.             ",
"            .XXXXXX.            ",
"           .XXXXXXXX.           ",
"          .XX..XX..XX.          ",
"         .XX. .XX. .XX.         ",
"         .X.  .XX.  .X.         ",
"       .. .   .XX.   . ..       ",
"      .XX.    .00.    .XX.      ",
"     .XX.    000000    .XX.     ",
"    .XX.    000XX000    .XX.    ",
"   .XX.     00.XX.00     .XX.   ",
"  .XXX......00XXXX00......XXX.  ",
" .XXXXXXXXX0000000000XXXXXXXXX. ",
" .XXXXXXXXX0000000000XXXXXXXXX. ",
"  .XXX.....0000000000.....XXX.  ",
"   .XX.    0000000000    .XX.   ",
"    .XX.   0000000000   .XX.    ",
"     .XX.  0000000000  .XX.     ",
"      .XX.    .XX.    .XX.      ",
"       .. .   .XX.   . ..       ",
"         .X.  .XX.  .X.         ",
"         .XX. .XX. .XX.         ",
"          .XX..XX..XX.          ",
"           .XXXXXXXX.           ",
"            .XXXXXX.            ",
"             .XXXX.             ",
"              .XX.              ",
"               ..               ",
"                                "
};

/* XPM */
const char * _2Dview_scale[] = {
/* columns rows colors chars-per-pixel */
"32 32 4 1",
"  c None",
". c gray50",
"X c black",
"0 c green",
/* pixels */
"XXXXXXXXXXXXXXXXXXXXXXXXXXXXXXXX",
"XXXXXXXXXXXXXXXXXXXXXXXXXXXXXXXX",
"XX   .X   .X   .X   .X   .X   XX",
"XX   X.   X.   X.   X.   X.   XX",
"XX        .X   .X   .X   .X   XX",
"XXX.                        X.XX",
"XX.X                        .XXX",
"XX                            XX",
"XX                            XX",
"XX                            XX",
"XXX.X                      .X.XX",
"XX.X.                      X.XXX",
"XX                            XX",
"XX                            XX",
"XX                            XX",
"XXX.X                      .X.XX",
"XX.X.                      X.XXX",
"XX                            XX",
"XX                            XX",
"XX                            XX",
"XXX.X                      .X.XX",
"XX.X.                      X.XXX",
"XX                            XX",
"XX                            XX",
"XX                            XX",
"XXX.                        X.XX",
"XX.X                        .XXX",
"XX        X.   X.   X.        XX",
"XX   .X   .X   .X   .X   .X   XX",
"XX   X.   X.   X.   X.   X.   XX",
"XXXXXXXXXXXXXXXXXXXXXXXXXXXXXXXX",
"XXXXXXXXXXXXXXXXXXXXXXXXXXXXXXXX"
};

/* XPM */
const char * _2Dview_export[] = {
/* columns rows colors chars-per-pixel */
"32 32 6 1",
"  c None",
": c gray75",
", c gray25",
". c gray50",
"X c black",
"0 c yellow",
/* pixels */
"                      XXXXXXXXXX",
"                       XXXXXXXXX",
"                        XX0000XX",
"                        XX0000XX",
"                       XX00000XX",
"                      XX000000XX",
" XXXXXXXXXXXXXXXXXX  XX00000XXXX",
" X:::::::::::::....  XX0000XXXXX",
" X:::::::::::::.....  XX00XX  XX",
" X::::::::::::.......  XXXX    X",
" X::::::::::::........  XX      ",
" X:::::::::::...........        ",
" X:::::::::::............X      ",
" X::::::::::.............X      ",
" X:::::::::..............X      ",
" X:::::::::..............X      ",
" X::::::::...............X      ",
" X::::::::...............X      ",
" X:::::::,...............X      ",
" X:::::::,,,.............X      ",
" X::::::,,,,,,...........X      ",
" X::::::,,,,,,,,,........X      ",
" X:::::,,,,,,,,,,,,......X      ",
" X::::,,,,,,,,,,,,,,,....X      ",
" X::::,,,,,,,,,,,,,,,,,..X      ",
" X:::,,,,,,,,,,,,,,,,,,,,X      ",
" X:::,,,,,,,,,,,,,,,,,,,,X      ",
" X::,,,,,,,,,,,,,,,,,,,,,X      ",
" X::,,,,,,,,,,,,,,,,,,,,,X      ",
" X:,,,,,,,,,,,,,,,,,,,,,,X      ",
" XXXXXXXXXXXXXXXXXXXXXXXXX      ",
"                                "
};
