/* XPM */
const char * _imp_spec[] = {
/* columns rows colors chars-per-pixel */
"32 32 3 1",
"  c None",
"X c black ",
". c grey50 ",
/* pixels */
"                                ",
"    ...                         ",
"    .X.                         ",
"    .X.                         ",
" ....X....                      ",
" .XXXXXXX.                      ",
" ....X....  ....................",
"    .X.  ...................... ",
"    .X........................ .",
"    ...                       . ",
"    .       X           X      .",
"   .        X           X      .",
"  .         X           X      .",
" .          X         XXXXX    .",
".           X           X      .",
".           X           X      .",
".           X           X      .",
".           X           X      .",
".       XXX X   XXXX    X      .",
".      X   XX  X    X   X      .",
".      X    X  X    X   X      .",
".      X    X  X    X   X      .",
". XX   X    X  X    X   X    X .",
". XX    XXXX    XXXX X   XXXX  .",
".                              .",
"................................",
"                                ",
"                                ",
"                                ",
"                                ",
"                                ",
"                                "
};

