/* XPM */
const char * _info_pageinfo[] = {
/* columns rows colors chars-per-pixel */
"32 32 3 1",
"  c None",
". c gray50",
"X c black",
/* pixels */
"                                ",
"                                ",
"               XXXX             ",
"              XXXXXX            ",
"             XXXXXXXX           ",
"             XXXXXXXX           ",
"             XXXXXXX            ",
"              XXXXXX            ",
"               XXXX             ",
"                                ",
"                                ",
"             XXXXXX             ",
"          XXXXXXXXX             ",
"       XXXXXXXXXXXX             ",
"         XXXXXXXXXX             ",
"           XXXXXXX     .        ",
"            XXXXXX              ",
"            XXXXXX              ",
"            XXXXXX              ",
"           XXXXXXX              ",
"           XXXXXXX              ",
"           XXXXXX               ",
"           XXXXXX               ",
"           XXXXXX               ",
"          XXXXXXX  XX           ",
"          XXXXXXXXXXXX          ",
"           XXXXXXXXXXX          ",
"           XXXXXXXXXX           ",
"            XXXXXXX             ",
"                                ",
"                                ",
"                                "
};
