/* XPM */
const char * _lv_nolv[] = {
/*columns rows colors char-per-pixel */
"32 32 3 1",
"  c None",
"0 c gray50",
"X c black",
"                                ",
" X0                          0X ",
" 0X0                        0X0 ",
"  0X0                      0X0  ",
"   0X0                    0X0   ",
"    0X0                  0X0    ",
"     0X0                0X0     ",
"      0X0              0X0      ",
"       0X0            0X0       ",
"        0X0          0X0        ",
"         0X0        0X0         ",
"          0X0      0X0          ",
"           0X0    0X0           ",
"            0X0  0X0            ",
"             0X00X0             ",
"              0XX0              ",
"              0XX0              ",
"             0X00X0             ",
"            0X0  0X0            ",
"           0X0    0X0           ",
"          0X0      0X0          ",
"         0X0        0X0         ",
"        0X0          0X0        ",
"       0X0            0X0       ",
"      0X0              0X0      ",
"     0X0                0X0     ",
"    0X0                  0X0    ",
"   0X0                    0X0   ",
"  0X0                      0X0  ",
" 0X0                        0X0 ",
" X0                          0X ",
"                                "
};

/* XPM */
const char * _lv_linelv[] = {
/*columns rows colors char-per-pixel */
"32 32 2 1",
"  c None",
"X c black",
"                                ",
"                                ",
"                                ",
"                                ",
"                                ",
"                                ",
"                                ",
"                                ",
"                                ",
"                                ",
"                                ",
"                                ",
"                                ",
"                                ",
"           XXXXXXXX           X ",
"      XXXXXXXXXXXXXXX       XXX ",
" XXXXXXXXXXX      XXXXXXXXXXXXX ",
" XXXXXX             XXXXXXXXX   ",
"                                ",
"                                ",
"                                ",
"                                ",
"                                ",
"                                ",
"                                ",
"                                ",
"                                ",
"                                ",
"                                ",
"                                ",
"                                ",
"                                "
};

/* XPM */
const char * _lv_offslv[] = {
/*columns rows colors char-per-pixel */
"32 32 2 1",
"  c None",
"X c black",
"                                ",
"                                ",
"                                ",
"                                ",
"                                ",
"                                ",
"                                ",
"                                ",
"                                ",
"                                ",
"           XXXXXXXX         XX  ",
" XXXXXXXXX         XXXXXXXXX    ",
"                                ",
"                                ",
"           XXXXXXXX           X ",
"      XXXXXXXXXXXXXXX       XXX ",
" XXXXXXXXXXX      XXXXXXXXXXXXX ",
" XXXXXX             XXXXXXXXX   ",
"                                ",
"                                ",
"                                ",
"                                ",
"                                ",
"                                ",
"                                ",
"                                ",
"                                ",
"                                ",
"                                ",
"                                ",
"                                ",
"                                "
};

/* XPM */
const char * _lv_slopelv[] = {
/*columns rows colors char-per-pixel */
"32 32 2 1",
"  c None",
"X c black",
"                                ",
"                                ",
"                                ",
"                          X X X ",
"                         X X X  ",
"                        X X X   ",
"                       X X X    ",
"                      X X X     ",
"                     X X X      ",
"                    X X X       ",
"                   X X X        ",
"                  X X X         ",
"                 X X X          ",
"                X X X           ",
"               X X X            ",
"              X X X             ",
"             X X X              ",
"            X X X               ",
"           X X X                ",
"          X X X                 ",
"         X X X                  ",
"        X X X                   ",
"       X X X                    ",
"      X X X                     ",
"     X X X                      ",
"    X X X                       ",
"   X X X                        ",
"  X X X                         ",
" X X X                          ",
"                                ",
"                                ",
"                                "
};

/* XPM */
const char * _lv_3ptslv[] = {
/*columns rows colors char-per-pixel */
"32 32 3 1",
"  c None",
"0 c red",
"X c black",
"                                ",
"     X X                        ",
"     X X                        ",
"     X X                        ",
"     X X                        ",
" XXXX   XXXX                    ",
"      0                         ",
" XXXX   XXXX                    ",
"     X X  00                    ",
"     X X    00                  ",
"     X X      00        X X     ",
"     X X        00      X X     ",
"                  00    X X     ",
"        0           00  X X     ",
"        0           XXXX   XXXX ",
"         0               0      ",
"         0          XXXX0  XXXX ",
"          0             X X     ",
"          0          0  X X     ",
"                    0   X X     ",
"           X X    00    X X     ",
"           X X   0              ",
"           X X  0               ",
"           X X                  ",
"       XXXX  0XXXX              ",
"            0                   ",
"       XXXX   XXXX              ",
"           X X                  ",
"           X X                  ",
"           X X                  ",
"           X X                  ",
"                                "
};

#ifdef JASHDASKJDLAKIJSLDKN
/* XPM */
const char * _lv_classav[] = {
/*columns rows colors char-per-pixel */
"32 32 3 1"
"  c None"
"1 c magenta"
"4 c green"
"                                ",
"                                ",
"                                ",
"                                ",
"                                ",
"                                ",
"                                ",
"                                ",
"                                ",
"                                ",
"                                ",
"                                ",
"                                ",
"                                ",
"                                ",
"                                ",
"                                ",
"                                ",
"                                ",
"                                ",
"                                ",
"                                ",
"                                ",
"                                ",
"                                ",
"                                ",
"                                ",
"                                ",
"                                ",
"                                ",
"                                ",
"                                "
};

#endif
