/* XPM */
const char * _math_icon[] = {
/*columns rows colors char-per-pixel */
"32 32 3 1",
"  c None",
"X c black",
". c gray50",
"                                ",
"                                ",
"          X XX                  ",
"    XX    XX  X                 ",
"   X  X   X   X       X         ",
"       X  X   X      X          ",
"    XX X            X           ",
"   X  XX           X            ",
"  X    X          X             ",
"   X  X          X              ",
"    XX          X               ",
"               X                ",
"              X                 ",
"             X                  ",
"            X                   ",
"           X                    ",
"          X                     ",
"         X                      ",
"                                ",
"              XX          X XX  ",
"             X  X         XX  X ",
"                 X        X   X ",
"              XX X  X   X X   X ",
"             X  XX   X X        ",
"            X    X    X         ",
"             X  X    X X        ",
"              XX    X   X       ",
"                                ",
"                                ",
"                                ",
"                                ",
"                                "
};
