/* XPM */
static char * novembre_v0[] = {
"32 32 16 1",
"  c None",
". c #010300",
"X c #FCFEFB",
"o c #A70000",
"O c #E70000",
"+ c #4B4F4D",
"@ c #929491",
"# c #6C0001",
"$ c #3F0100",
"% c #323432",
"& c #D50000",
"* c #C7C9C5",
"= c #8D0000",
"- c #7D807F",
"; c #B7BAB6",
": c #A1A3A0",
"                                ",
"                                ",
"                                ",
"                                ",
"                .   .           ",
"              ..... ..          ",
"            ...XXXX.o....       ",
"          .....XXXX.O.+XX.      ",
"         ..X@#$+XX%oO&.XXX...   ",
"        ..XX.oOo.X.O&Oo.*%.=$   ",
"        .XXX-#OOo.$OOOO$.#O&.   ",
"        .XXX.$O&&Oo&o&&OOOO#    ",
"        ....;.O###O&O=&&&&O..   ",
"       .-XXXX-$O&O#OO#&&#oo.    ",
"      .X%XXXXX.&&&oO&#&#oO#     ",
"     .*X+XXXXX%=O&##O#&#O&%  .. ",
"    .;XX%XX.$...o&&=&##&O=..#o. ",
"   .@XXXX.%%OO$.$O&&##O&&$&OO&  ",
"  ..XXXXXXX.&OO&oO&&&oO&OO&O&.. ",
"  .XXXXXXXX%.O&#&&OOO#&&&&O=o.  ",
" .-XXXXXXXXX.#O##OoO&#OOO#=O.   ",
" .;XXXXXXXXX*%=&&#O&#&O##&o.    ",
"  ;XXXXXXXX*...o&#####=OO..     ",
"  .XXXXX:... .oo&O&Oo&&..       ",
"  .......   . ...$#=#..         ",
"                  ..            ",
"                  ...           ",
"                  ..            ",
"                  .             ",
"                                ",
"                                ",
"                                "};
