/* XPM */
const char *_main_novembre[]={
"128 128 4 1",
". c None",
"# c #000000",
"a c #de0000",
"b c #ffffff",
"................................................................................................................................",
"................................................................................................................................",
"................................................................................................................................",
"................................................................................................................................",
"................................................................................................................................",
"................................................................................................................................",
"................................................................................................................................",
"................................................................................................................................",
"................................................................................................................................",
"................................................................................................................................",
"................................................................................................................................",
"................................................................................................................................",
"................................................................................................................................",
"................................................................................................................................",
"...................................................................................#............................................",
"..................................................................................##............................................",
".................................................................................####...........................................",
".................................................................................####...........................................",
"................................................................................#####...........................................",
"................................................................................######..........................................",
"................................................................................#######.........................................",
"...............................................................................########.........................................",
"...............................................................................##########.......................................",
"...............................................................................##########.......................................",
"............................................................###########.......####aa#######.....................................",
"..................................................########################...####aaa##############..............................",
"..................................................###########bbbbbbbb######..####aaa################............................",
".................................................##########bbbbbbbbbbbbb#########aaaa####b############..........................",
"...............................................############bbbbbbbbbbbbbbb######aaaaa#####bbbbbbbb#####.........................",
"............................................###############bbbbbbbbbbbbbbb#####aaaaaa#####bbbbbbbbbb####........................",
"..........................................##################bbbbbbbbbbbbbbb####aaaaaaa#####bbbbbbbbbb####.......................",
".........................................#####bbbb##########bbbbbbbbbbbbbb####aaaaaaaa######bbbbbbbbb####.......###.............",
"........................................#####bbbbb####aa######bbbbbbbbbbbb####aaaaaaaa######bbbbbbbbbb###.....######............",
".......................................####bbbbbbb####a#a#####bbbbbbbbbbb####aaaaaaaaaaa#####bbbbbbbbb###...########............",
".....................................#####bbbbbbbb####aaa######bbbbbbbbbb####aaaaaaaaaaaa#####bbbbbbbbb#############............",
".....................................####bbbbbbbbb###aaaaa######bbbbbbbb#####aaaaaaaaaaaa######bbbbbbb##############............",
"....................................####bbbbbbbbbb###aaaaaaaa######bbbbb####aaaaaaaaaaaaaa#####bbbbbbbb#########a###............",
"...................................####bbbbbbbbbbb###aaaaaaaaaa#####bbb#####aaaaaaaaaaaaaaa#####bbbbb#########aaa###............",
"..................................####bbbbbbbbbbbb###aaaaaaaaaaa######b#####aaaaaaaaaaaaaaa######bb########aaaaaa###............",
"..................................###bbbbbbbbbbbbb###aaaaaaaaaaaa###########aaaaaaaaaaaaaaaa#####b#######aaaaaaaa###............",
".................................####bbbbbbbbbbbbb###a#aaaaaaaaaaa#########aaaaaaaaaaaaaaaaa###########aaaaaaaaa####............",
".................................###bbbbbbbbbbbbbb###a#aaaaaaaaaaa#########aaaaaaaaaaaaaaaaaa#########aaaaaaaaaa###.............",
".................................###bbbbbbbbbbbbbb####aaaaaaaaaaaaaa#######aaaaaaaaaaaaaaaaaaa#########aaaaaaaa####.............",
"................................####bbbbbbbbbbbbbb####aaaaaaaaaaaaaaaaa####aaaaaaaaaaaaaaaaaaa######aaaaaaaaaaa####.............",
"................................###bbbbbbbbbbbbbbb####aaaaaaaaaaaaaaaaaaa##aaaaaaaa#aaaaaaaaaaaaaaaaaaaaaaaaaa#####.............",
"................................###bbbbbbbbbbbbbbbb###aaaaaaaaaaaaaaaaaaaa#aaaaaaaa#aaaaaaaaaaaaaaaaaaaaaaaaaa####..............",
"................................###bbbbbbbbbbbbbbbb###a#aaaaaaaaaa#aaaaaaaaaaaaaaaa#aaaaaaaaaaaaaaaaaaaaaaaaaa####..............",
"..............................######bbbbbbbbbbbbbbbb####aaaaaaaaaaaaaaaaaaaaaaaaaaaa#aaaaaaaaaaaaaaaaaaaaaaaaa####..............",
"..............................#######bbbbbbbbbbbbbbb####aaaaaaaaaaa#aaaaaaaaaaaaaaaa#aaaaaaaaaaaaaaaaaaaaaaaa#####..............",
"...............................########bbbbbbbbbbbbbb###aaaaaaaaaaa##aaaaaaaaaaaaaaa#aaaaaaaaaaaaaaaaaaaaaaaa####...............",
"...............................##########bbbbbbbbbb#####aaaaaaaaaaaa#a##aaaaaaaaaaaa#aaaaaaaaaaaaaaaaaaaaaaa####................",
"...............................####b#####################aaaaaaaaaaa##a#aaaaaaaaaaaa##aaaaaaaaa##aaaa#aaaaaa####................",
"..............................####bbbbb###################aaaaaaaaaaaaa##aaaaaaaaaaaa#aaaaaaaaa#aaaa##aaaaaa####................",
"............................######bbbbbbbbbbbbbbbbbbbb####aaaaaaaaaaaaaa#aaaaaaaaaaaa#aaaaaaaaa#aaaa#aaaaaa####.................",
"...........................#######bbbbbbbbbbbbbbbbbbbb#####aaaaaaaaaaaaa#aaaaaaaaaaaa#aaaaaaaaaa#aa#aaaaaaa####.................",
"..........................########bbbbbbbbbbbbbbbbbbbbb####aaaaaaaaaaaaa##aaaaaaaaaaa#aaaaaaaaaa#a##aaaaaaa###..................",
".........................#####b###bbbbbbbbbbbbbbbbbbbbbb####aaaaaaaaaaaaa#aaaaaaaaaaaaaaaaaaaaa#a##aaaaaaa###...................",
"........................#####bb###bbbbbbbbbbbbbbbbbbbbb#####aaaaaaaaaaaaaa#aaaaaaaaaaa#aaaaaaaa##aaaaaaaaa###...................",
".......................#####bbb###bbbbbbbbbbbbbbbbbbbbb######aaaaaaaaaaaaa#aaaaaaaaaaa#aaaaaaa#aaaaaaaaaa####...................",
".......................####bbbb###bbbbbb#b#####bbbbbbbbb#####aaaaaaaaaaaaaa#aaaaaaaaaa#aaaaaaa#aaaaaaaaaaa###...................",
"......................####bbbbb###bbbbbb#######bbbbbbbbb#####aaaaaaaaaaaaaa##aaaaaaaaa#aaaaaa#aaaaaaaaaaa###b............##.....",
".....................####bbbbbb###bbbbbbb#######bbbbbbbbb####aaaaaaaaaaaaaaa#aaaaaaaaa#aaaaa#aaaaaaaaaaa###b..........######....",
"....................####bbbbbbb##bbbbbbb#########bbbbbbbb#####aaaaaaaaaaaaaaa#aaaaaaaa#aaaa#aaaaaaaaaaaa###b.....###########....",
"...................####bbbbbbbb##bbbbbbbb#########bbbbbbbb####aaaaaaaaaaaaaaa#aaaaaaaa#aaa#aaaaaaaaaaaa#####################....",
"..................####bbbbbbbbb###bbbbbbb######################aaaaaaaaaaaaaa##aaaaaaa#aa##aaaaaaaaaaaa#####################....",
".................#####bbbbbbbbbb##bbbbbbb####aa##################aaaaaaaaaaaaa##aaaaaa#aaaaaaaaaaaaaaaa############aaaaaa###....",
"................#####bbbbbbbbbbb##bbbbbbb####aaaaa###############aaaaaaaaaaaaaa#aaaaaa#aaaaaaaaaaaaaaa###########aaaaaaaa###....",
"...............#####bbbbbbbbbbb###bbbbbbb####aaaaaaaaa############aaaaaaaaaaaaaa#aaaaa#aaaaaaaaaaaaaa##########aaaaaaaaa####....",
"..............#####bbbbbbbbbbbb###bbbbbbbb###aaaaaaaaaaaa#########aaaaaaaaaaaaaa##aaaa#aaaaaaaaaaaaa######aaaaaaaaaaaaaa####....",
"..............####bbbbbbbbbbbbb###bbbbbbbb####aaaaaaaaaa###########aaaaaaaaaaaaaa##aaa#aaaaaaaaaaaaa####aaaaaaaaaaaaaaa####.....",
".............#####bbbbbbbbbbbbb###bbbbbbbb#####aaaaaaaaaaa#########aaaaaaaaaaaaaaa##aa#aaaaaaaaaaa#aaaaaaaaaaaaaaaaaaaa####.....",
"............####bbbbbbbbbbbbbbb###bbbbbbbb#####aaaaaaaaaaaa########aaaaaaaaaaaaaaaa#aa#aaaaaaaaaaaaaa#aaaaaaaaaaaaaaaaa####.....",
"............####bbbbbbbbbbbbbbbb##bbbbbbbb#####aaaaaaaaaaaaaaa##a#aaaaaaaaaaaaaaaaaaaa#aaaaaaaaaaaaaaaaaaaaaaaaaaaaaaa####......",
"...........####bbbbbbbbbbbbbbbb###bbbbbbbbb#####aaaaaaaaaaaaaaaa###aaaaaaaaaaaaaaaaaaa#aaaaaaa#aaaaaaaaaaaaaaaaaaaaaaa####......",
"...........###bbbbbbbbbbbbbbbbb###bbbbbbbbbb#####aaaaaaaaaaaaaaaaaaaaaaaaaaaaaaaaaaaaaaaaaaaaaaaaaaaaaaaaaaaaaaaaaaaa#####......",
".........#####bbbbbbbbbbbbbbbbb###bbbbbbbbbb######aaaaaaaaaaaaaaaaaaaaaaaaaaaaaaaaaaaaaaaaaaaaaaaaaaaaaaaaaaaaaaaaaaa####.......",
".........####bbbbbbbbbbbbbbbbbb###bbbbbbbbbbb######aaaaaaaaaaaaaaaaaaaaaaaaaaaaaaaaaa#aaaaaaaaaaaaaaaaaaaaaaaaaaaaaa#####.......",
".........####bbbbbbbbbbbbbbbbbbb######bbbbbbb######aaaaaaaaaa#aaaaaaaaaaaaaaaaaaaaaaa#aaaaaaaaaaaaaaaaaaaaaaaa##aaaa####........",
"........####bbbbbbbbbbbbbbbbbbbbb####bbbbbbbbb#####aaaaaaaaaaa#aaaaaaaaaaaaaaaaaaaaaa#aaaaaaaaaaaaaaaaaaaaaaa#aaaa######........",
"........###bbbbbbbbbbbbbbbbbbbbbbbb#################aaaaaaaaaa#aaaaaaaaaaaaaaaaaaaaa##aaaaaaaaaaaaaaaaaaaaaa#aaaa######.........",
"........##bbbbbbbbbbbbbbbbbbbbbbbbbbb#########b######aaaaaaaaa#aaaaaaaaaaaaaaaaaaaaa#aaaaaaaaaaaaaaaaaaaaa##aaaaa#####..........",
".......###bbbbbbbbbbbbbbbbbbbbbbbbbbbbbbbbbbbbb#######aaaaaaaaa#aaaaaaaaaa#aaaaaaaaa#aaaaaaaaaaaaaaaaaaaa##aaaaa#####...........",
".......###bbbbbbbbbbbbbbbbbbbbbbbbbbbbbbbbbbbbbb######aaaaaaaaaa#aaaaaaaa#aaaaaaaaa#aaaaaaaaaaaaaaaaaaaa#aaaaaaa####............",
"......####bbbbbbbbbbbbbbbbbbbbbbbbbbbbbbbbbbbbbbb######aaaaaaaaaa#aaaaaaaaaaaaaaaaa#aaaaaaaaaaaaaaaaa##aaaaaaaa####.............",
"......####bbbbbbbbbbbbbbbbbbbbbbbbbbbbbbbbbbbbbbbb######aaaaaaaaaa#aaaaaaaaaaaaaaa#aaaaaaaaaaaaaaaa###aaaaaaaa####..............",
"......###bbbbbbbbbbbbbbbbbbbbbbbbbbbbbbbbbbbbbbbbbb#b####aaaaaaaaaa#aaaaaaaaaaaaaa#aaaaaaaaaaaaaa###aaaaaaaa#####...............",
"......###bbbbbbbbbbbbbbbbbbbbbbbbbbbbbbbbbbbbbbbbbbb#b####aaaaaaaaaa#aaaaaaaaaaaa#aaaaaaaaaaaaa###aaaaaaaa######................",
"......###bbbbbbbbbbbbbbbbbbbbbbbbbbbbbbbbbbbbbbbbbbb#######aaaaaaaaa##aaaaaaaaaa##aaaaaaaaaa###aaaaaaaaaa######.................",
"......###bbbbbbbbbbbbbbbbbbbbbbbbbbbbbbbbbbbbbbbbb###########aaaaaaaa##aaaaaaaaa#aaaaaaaaa###aaaaaaaaaaa######..................",
"......###bbbbbbbbbbbbbbbbbbbbbbbbbbbbbbbbbbbbbbb#############aaaaaaaaaa###aaaaaaa##aaaa###aaaaaaaaaaaaa#####....................",
"......###bbbbbbbbbbbbbbbbbbbbbbbbbbbbbbbbbbbbbb##############aaaaaaaaaaaaa########aaaaaaaaaaaaaaaaaaa######.....................",
"......####bbbbbbbbbbbbbbbbbbbbbbbbbbbbbbbbbbb##############aaaaaaaaaaaaaaaaaaaaaaaaaaaaaaaaaaaaaaaa#######......................",
".......###bbbbbbbbbbbbbbbbbbbbbbbbbbbbb#################aaaaaaaaaaaaaaaaaaaaaaaaaaaaaaaaaaaaaaaa########........................",
".......####bbbbbbbbbbbbbbbbbbbbbbbbbb###########...####aaaaaaaaaaaaaaaaaaaaaaaaaaaaaaa#aaaaaaa########..........................",
".......####bbbbbbbbbbbbbbbbbbbbbbb############.....#######aaaaaaaaaaaaaaaaaaaaaaaaa#aaaaaaaa#########...........................",
"........####bbbbbbbbbbbbbbbbbbb############........#############a##aaaaaaaaaaaaaaaa#aaa###a#######..............................",
".........#####bbbbbbbbbbbb##############...........################aaaaaaaaaaaaaaaa#############................................",
"..........#########################....................################aaaaaaaaaaaaa#########...................................",
"............###################...............................#############aaa###a#########.....................................",
"..............###############...................................#########################.......................................",
"...........................................................................##########...........................................",
"............................................................................#######.............................................",
".............................................................................#####..............................................",
"............................................................................######..............................................",
"...........................................................................#######..............................................",
"...........................................................................#######..............................................",
"...........................................................................######...............................................",
"...........................................................................######...............................................",
"..........................................................................#####.................................................",
"..........................................................................#####.................................................",
"........................................................................#######.................................................",
"........................................................................######..................................................",
"........................................................................######..................................................",
"........................................................................######..................................................",
".........................................................................##.....................................................",
"................................................................................................................................",
"................................................................................................................................",
"................................................................................................................................",
"................................................................................................................................",
"................................................................................................................................",
"................................................................................................................................",
"................................................................................................................................",
"................................................................................................................................",
"................................................................................................................................",
"................................................................................................................................",
"................................................................................................................................",
"................................................................................................................................",
"................................................................................................................................"};
