/* XPM */
const char * _main_novembre[] = {
/* columns rows colors chars-per-pixel */
"32 32 3 1",
"  c None",
"0 c red",
"X c black",
"                                ",
"                                ",
"                                ",
"                                ",
"                                ",
"                                ",
"                                ",
"                     X          ",
"            XXXX   X   X        ",
"          X      X      X       ",
"        X         X      X      ",
"       X          X             ",
"       X         X       X      ",
"        X      X                ",
"       X  XXXX         X        ",
"      X             0X          ",
"                  X000          ",
"      X      X X    0           ",
"        X X      000 000        ",
"                  0   0         ",
"                0000 0000       ",
"                 00   00        ",
"                  00000         ",
"                    0           ",
"                    0           ",
"                    0           ",
"                                ",
"                                ",
"                                ",
"                                ",
"                                ",
"                                "
};
