/* XPM */
const char * _rad_av[] = {
/*columns rows colors char-per-pixel */
"32 32 3 1",
"  c None",
"X c black",
". c grey50",
"                                ",
"              .XXXXXXXXXXX.     ",
"          .XXX.           .XXX. ",
"       .XX.                   .X",
"      X.                        ",
"    .X.                         ",
"   .X                           ",
"  .X                            ",
"  X             .XXXXXXX.       ",
" X.          .XX.       .XX.    ",
"..          X.             .X   ",
"X         .X                 X. ",
"X        X.                   .X",
".       ..                     .",
"        X                       ",
"       X          .XXX.         ",
"      ..        XX.   .XX       ",
"      X       .X.       .X.     ",
"      X       X           X     ",
"     ..      X.           .X    ",
"     X       X             X    ",
"     X      ..             ..   ",
"     X      X       .       X   ",
"     X      X      .X.      X   ",
"     X      X       .       X   ",
"     X      ..             ..   ",
"     X       X             X    ",
"     ..      X.           .X    ",
"      X       X           X     ",
"      X       .X.       .X.     ",
"      ..        XX.   .XX       ",
"       X.         .XXX.         "
};

