/* XPM */
const char * _shift_icon[] = {
/*columns rows colors char-per-pixel */
"32 32 3 1",
"  c None",
"X c black",
". c gray50",
"                                ",
"              XX                ",
"             XXXX        X      ",
"            X XX X       X      ",
"           X  XX  X     X       ",
"              XX       X        ",
"              XX      X         ",
"              XX     X          ",
"                     X          ",
"                    X           ",
"                    X           ",
"    X               X      X    ",
"   X               X        X   ",
"  X            XXXX          X  ",
" XXXXXXX     XX         XXXXXXX ",
" XXXXXXX    X           XXXXXXX ",
"  X        X                 X  ",
"   X       X                X   ",
"    X      X               X    ",
"         XX                     ",
"        X                       ",
"      XX                        ",
"     X                          ",
"    X                           ",
"   X          XX                ",
"   X          XX                ",
"              XX                ",
"           X  XX  X             ",
"            X XX X              ",
"             XXXX               ",
"              XX                ",
"                                "
};
