/* XPM */
const char * _sview_1D[] = {
/* columns rows colors chars-per-pixel */
"32 32 5 1",
"  c None",
". c gray50",
"X c black",
"O c red",
"I c blue",
/* pixels */
"                                ",
"  .X. XXX                       ",
" .XX  X  X                      ",
"   X  X   X            OOO      ",
"   X  X  X             O.OOO    ",
" .XXX XXX            OOOOO  OOO.",
"                   OO           ",
"                 OO             ",
".              OO               ",
" O           OO                 ",
"  OOO   OOOOO                   ",
"     OOOO.O                     ",
"        OOO                     ",
"                       ...      ",
".                      .........",
" II                   ....      ",
"   I                 .          ",
"    II             ..           ",
"      I           .             ",
"       IIII      .              ",
"        I.I    ..               ",
"        IIII  .                .",
"            II                I ",
"           .  II             I  ",
"        ...     II          I   ",
"       ....       II       I    ",
"     .. ...         II    I     ",
"   ..                 IIII      ",
" ..                    I.I      ",
".                      III      ",
"                                ",
"                                "
};

/* XPM */
const char * _sview_2D[] = {
/* columns rows colors chars-per-pixel */
"32 32 5 1",
"  c None",
". c gray50",
"X c black",
"O c red",
"I c 0xAA3300",
/* pixels */
"                                ",
"  XX  XXX                       ",
" X  X X  X                      ",
"   X  X   X                     ",
"  X   X  X                      ",
" XXXX XXX                       ",
"                                ",
"       IIIIIIIOOOOOOOOOOOOOOIII ",
"       .OIIIIIIOOOOOXXXOOOOIIII ",
"       . IIIIIIOOOOXXXOOOOOIIII ",
"       .  OIIIIIOOOOXOOOOOIIIII ",
"       .   IIIIIOOOOOOOOOOIIIII ",
"       .    OIIIIOOOOOOOOIIIIII ",
"       .     IIIIIOOOOOOOIIIIII ",
"       .      OIIIIOOOOOIIIIIIO ",
"       .       IIIIOOOOOIIIIIOO ",
"       .       .OIIIOOOIIIIIOOO ",
"       .      ...IIIIOOIIIIOOOO ",
"       .      ....OIIOIIIIOOOOO ",
"       .      ....IIIIIIIOOOOOO ",
"       .     ......IOIIIOOOOXOO ",
"       .    .......IIIIIOOOXXXO ",
"       .   ........IIIOXXXXXXXO ",
"       .  . .. .   IIIIIXXXXXOO ",
"       .   .. .    IIIIIOOOOXXO ",
"       .  .. .     IIIIIIIOOOOO ",
"       .           IIIIIIIIOOOO ",
"       .            IIIIIIIIOOO ",
"       .             IIIIIIIOOO ",
"       .              IIIIIIIIO ",
"       ................IIIIIIIO ",
"                                "
};

/* XPM */
const char * _sview_3D[] = {
/* columns rows colors chars-per-pixel */
"32 32 3 1",
"  c None",
". c gray50",
"X c black",
/* pixels */
"                                ",
"  XX  XXX                       ",
" X  X X  X                      ",
"   X  X   X                     ",
" X  X X  X                      ",
"  XX  XXX                       ",
"                                ",
"                                ",
"                                ",
"                                ",
"                                ",
"                   .            ",
"                 .. .           ",
"               ..  ...          ",
"              .    ....         ",
"            ..     .....        ",
"          ..       ......       ",
"        ..         .......      ",
"       .      .    ........     ",
"     ..      ..     ........    ",
"   ..      ..XX.    .........   ",
" ..       .XXXX.    ..........  ",
".       ........    ........... ",
"....       ......   ............",
"    ....      ...   ........... ",
"        ....         ........   ",
"            ....     ......     ",
"                .... ....       ",
"                    ...         ",
"                                ",
"                                ",
"                                "
};
