/* XPM */
const char * _slice_icon[] = {
/*columns rows colors char-per-pixel */
"32 32 5 1",
"  c None",
"X c black",
". c grey50",
"o c red",
"| c green",
"             |                  ",
"             |                  ",
"             |                  ",
"             |                  ",
"             |                  ",
"             |                  ",
"             |X                 ",
"             |.X                ",
"         oooo| .X               ",
"      X.ooooo|  X.              ",
"      .o    o|oo.X              ",
"      o . X. |oo .              ",
"      o X..  |ooo        X      ",
"     oo  XX  | ooo      X.X     ",
"     o       |  oo  X   . .  ooo",
"     o.      |  .oo.X   .  .oooo",
"     oX      |  X o.    . oooo  ",
"    oo.      |  . oo    oooo.  X",
"    oo       |  X Xo   oo   X. .",
"    o .      |  . .ooooo.    X. ",
"    o X      |  X.  ooo .     X ",
".  oo X      |   X  .   .       ",
" . oo .      |      X. .X       ",
"  oo .X      |       X.X        ",
" ooo ..      |        X         ",
"ooo. .       |                  ",
"oo  .X       |                  ",
"    X        |                  ",
"             |                  ",
"             |                  ",
"             |                  ",
"             |                  "
};

