/* XPM */
const char * _smooth_icon[] = {
/*columns rows colors char-per-pixel */
"32 32 4 1",
"  c None",
"X c black",
". c grey50",
"o c red",
"                                ",
"                                ",
"                                ",
"                                ",
"                                ",
"                                ",
"              X                 ",
"             X.X                ",
"         oooo. .X               ",
"      X.oooooo  X.              ",
"      .o    oooo.X              ",
"      o . X. ooo .              ",
"      o X..   ooo        X      ",
"     oo  XX    ooo      X.X     ",
"     o          oo  X   . .  ooo",
"     o.         .oo.X   .  .oooo",
"     oX         X o.    . oooo  ",
"    oo.         . oo    oooo.  X",
"    oo          X Xo   oo   X. .",
"    o .         . .ooooo.    X. ",
"    o X         X.  ooo .     X ",
".  oo X          X  .   .       ",
" . oo .             X. .X       ",
"  oo .X              X.X        ",
" ooo ..               X         ",
"ooo. .                          ",
"oo  .X                          ",
"    X                           ",
"                                ",
"                                ",
"                                ",
"                                "
};

