/* XPM */
const char * _subst_substractor[] = {
/* columns rows colors chars-per-pixel */
"32 32 5 1",
"  c None",
". c gray50",
", c gray75",
"X c black",
"1 c red",
/* pixels */
"  XX                            ",
" XX X                           ",
" X                              ",
"X    X                          ",
"X    X                          ",
"                                ",
"      X                         ",
"      X                         ",
"11     X                        ",
"  1                             ",
"   11   X         XXXX          ",
"     1   X        X             ",
"      11  XX     X    X         ",
"        1   XX  XX    X         ",
"         1    XX       X        ",
"          11           X        ",
"            11          X       ",
"              111               ",
"           ,     11      XXX    ",
"           ,       111      XX  ",
"           ,          111     XX",
"        ,  ,  ,          111    ",
"        ,  ,  ,             11  ",
"   .     , , ,                11",
"  . .    , , ,     ...          ",
"  .  .    ,,,     .   .         ",
" .   .    ,,,     .   .         ",
" .    .    ,     .     .        ",
".     .          .     .        ",
".      .        .       .       ",
"        ........         .......",
"                                "
};

